<?xml version="1.0" encoding="utf-8"?>
<!-- Generator: Adobe Illustrator 16.0.0, SVG Export Plug-In . SVG Version: 6.00 Build 0)  -->
<!DOCTYPE svg PUBLIC "-//W3C//DTD SVG 1.1//EN" "http://www.w3.org/Graphics/SVG/1.1/DTD/svg11.dtd">
<svg version="1.1" id="Layer_1" xmlns="http://www.w3.org/2000/svg" xmlns:xlink="http://www.w3.org/1999/xlink" x="0px" y="0px"
	 width="371.34px" height="371.34px" viewBox="0 0 371.34 371.34" enable-background="new 0 0 371.34 371.34" xml:space="preserve">
<g>
	<path fill="#526B43" d="M213.479,191.002c-2.691,3.505-5.328,6.827-7.848,10.234c-15.148,20.488-28.736,41.912-39.307,65.171
		c-1.645,3.618-3.678,7.097-5.848,10.435c-2.464,3.787-5.689,6.789-10.723,5.792c-5.308-1.05-7.86-4.985-9.301-9.806
		c-1.241-4.154-0.191-7.957,2.323-11.289c5.484-7.27,11.131-14.414,16.67-21.641c13.257-17.291,26.492-34.599,39.73-51.901
		c0.56-0.729,1.075-1.492,2.011-2.797c-2.729-0.415-5.018-1.138-7.271-1.042c-11.974,0.512-23.941,1.192-35.906,1.885
		c-13.095,0.758-25.784,3.939-38.579,6.508c-3.397,0.684-6.892,0.994-10.358,1.188c-2.808,0.156-5.407-0.851-7.358-2.932
		c-4.976-5.311-7.069-11.501-5.273-18.735c1.845-7.42,6.925-11.739,14.21-12.253c9.646-0.682,19.369-0.462,29.055-0.308
		c6.798,0.11,13.609,0.547,20.378,1.214c11.397,1.125,22.766,2.545,34.146,3.847c1.082,0.124,2.16,0.278,4.008,0.518
		c-1.025-1.061-1.567-1.718-2.205-2.263c-18.429-15.786-36.873-31.555-55.302-47.342c-4.779-4.093-9.628-8.115-14.229-12.402
		c-3.507-3.268-4.903-7.218-2.527-11.933c0.908-1.802,1.327-3.843,2.127-5.709c2.339-5.455,6.542-7.184,11.727-4.278
		c3.751,2.103,7.274,4.749,10.533,7.573c18.769,16.269,36.23,33.821,51.701,53.301c2.775,3.496,5.783,6.808,8.684,10.206
		c0.216-0.113,0.434-0.226,0.648-0.338c-0.574-3.8-1.17-7.596-1.721-11.398c-1.304-8.98-2.619-17.958-3.863-26.946
		c-1.139-8.235-2.375-16.464-3.231-24.731c-1.138-10.977-2.171-21.976-2.802-32.991c-0.316-5.521,1.012-10.708,5.729-14.616
		c4.227-3.501,8.848-3.238,13.506-2.032c3.915,1.014,7.704,2.605,11.443,4.191c4.584,1.944,6.252,6.13,6.303,10.567
		c0.09,7.795-0.271,15.614-0.838,23.394c-0.654,8.974-1.664,17.924-2.656,26.87c-1.05,9.447-2.279,18.874-3.392,28.314
		c-0.556,4.722-1.062,9.451-1.503,14.186c-0.08,0.874,0.263,1.787,0.514,3.32c2.207-1.833,4.104-3.229,5.794-4.841
		c12.203-11.651,22.078-25.188,31.646-38.993c6.782-9.786,13.836-19.382,20.737-29.085c2.275-3.198,5.379-4.919,9.191-4.229
		c5.146,0.93,10.282,2.121,15.241,3.75c2.389,0.785,4.584,2.594,6.473,4.361c2.941,2.753,2.982,5.492,1.576,9.274
		c-3.285,8.832-10.387,14.401-17.118,20.186c-13.818,11.876-27.954,23.384-41.795,35.235c-4.581,3.923-8.667,8.423-12.945,12.694
		c-0.639,0.636-1.092,1.457-2.045,2.759c1.961,0,3.35,0.09,4.725-0.014c10.514-0.794,21.023-1.606,31.533-2.451
		c10.59-0.851,21.19-1.589,31.757-2.674c6.967-0.715,13.837-1.548,20.377-4.873c6.359-3.234,9.93-1.473,11.938,4.359
		c1.866,5.422,3.396,10.985,4.64,16.583c0.377,1.697-0.43,3.827-1.168,5.554c-0.73,1.703-2.287,2.403-4.363,2.413
		c-28.968,0.142-57.936,0.381-86.902,0.588c-3.533,0.025-7.066,0.003-10.6,0.003c-0.074,0.316-0.147,0.631-0.221,0.946
		c1.983,1.522,3.918,3.112,5.959,4.555c13.004,9.193,27.392,15.602,42.263,21.082c11.688,4.309,23.306,8.822,34.915,13.342
		c2.035,0.791,4.035,1.865,5.753,3.194c0.791,0.61,1.35,2.24,1.17,3.259c-0.538,3.053-1.58,6.01-2.271,9.04
		c-1.652,7.267-5.707,13.025-11.207,17.824c-3.927,3.427-8.937,3.373-12.677-0.299c-3.272-3.212-6.31-6.689-9.233-10.229
		c-6.755-8.171-15.214-14.359-23.658-20.55c-12.214-8.95-24.538-17.75-36.826-26.599c-0.86-0.619-1.817-1.104-3.204-1.301
		c1.809,5.515,3.573,11.043,5.434,16.541c8.146,24.074,16.377,48.121,24.424,72.229c1.248,3.742,2.185,7.723,2.412,11.643
		c0.444,7.631-8.156,14.346-15.381,11.744c-2.604-0.938-5.086-3.902-6.336-6.55c-2.404-5.097-4.301-10.522-5.686-15.994
		c-5.627-22.245-10.932-44.573-16.465-66.845c-1.51-6.077-3.375-12.066-5.122-18.084
		C218.641,196.221,216.77,193.449,213.479,191.002z M222.494,179.604c4.498,0.005,8.927-3.689,9.681-8.143
		c0.093-0.541,0.052-1.274-0.248-1.688c-4.069-5.635-9.153-9.912-16.229-6.57c-1.276,0.602-2.688,2.051-3.007,3.36
		C210.691,174.761,215.912,180.101,222.494,179.604z"/>
	<path fill="#526B43" d="M45.868,73.355c2.338,0.698,4.681,1.381,7.014,2.097c2.184,0.669,4.331,1.468,6.539,2.041
		c3.027,0.786,4.539,0.035,5.294-3.059c0.903-3.692,1.302-7.507,2.117-11.225c0.286-1.304,1.158-2.479,1.762-3.712
		c1.155,0.598,2.498,0.989,3.426,1.835c2.071,1.889,3.847,4.099,5.907,6c2.084,1.924,3.617,1.926,5.483-0.221
		c2.223-2.558,4.137-5.386,6.166-8.112c4.18-5.617,5.197-5.591,8.819,0.253c2.775,4.479,4.043,5.025,9.258,3.603
		c3.429-0.935,6.769-2.222,10.222-3.036c1.653-0.39,3.614-0.463,5.196,0.053c2.69,0.877,3.937,4.082,2.589,7.33
		c-1.546,3.725-3.356,7.465-5.73,10.699c-7.552,10.281-15.673,20.148-23.097,30.517c-8.372,11.694-15.956,23.976-19.061,38.247
		c-1.742,8.003-2.401,16.25-3.408,24.404c-1.112,9.003-1.964,18.041-3.162,27.031c-0.284,2.123-0.522,5.344-3.19,5.416
		c-1.639,0.045-3.675-2.065-4.95-3.672c-2.532-3.186-4.888-6.56-6.905-10.092c-3.857-6.753-9.728-8.131-16.792-7.007
		c-1.667,0.265-3.389,0.323-5.08,0.278c-2.563-0.067-3.628-1.357-2.875-3.796c0.945-3.065,2.213-6.033,3.372-9.031
		c2.232-5.779,1.649-7.459-3.755-10.483c-3.035-1.698-6.173-3.224-9.124-5.053c-3.746-2.322-4.4-5.134-1.917-8.79
		c2.194-3.229,4.65-6.296,7.172-9.282c4.087-4.84,4.897-10.002,2.397-15.863c-1.49-3.493-2.677-7.131-3.771-10.773
		c-0.892-2.97,0.208-4.986,3.145-5.945c2.164-0.706,4.425-1.131,6.663-1.586c6.766-1.377,8.423-3.876,7.503-10.769
		c-0.629-4.704-1.056-9.447-1.306-14.185C41.624,74.378,42.7,73.56,45.868,73.355z"/>
	<path fill="#526B43" d="M42.707,312.428c-3.229-0.607-6.531-0.971-9.668-1.894c-2.89-0.851-3.543-2.851-1.82-5.353
		c1.825-2.647,4-5.067,6.116-7.505c16.562-19.069,38.016-29.856,61.976-36.206c6.606-1.752,13.396-2.925,20.169-3.88
		c2.76-0.39,5.781,0.191,8.54,0.896c3.611,0.923,4.536,3.649,2.192,6.525c-2.677,3.287-5.566,6.469-8.733,9.277
		c-10.958,9.722-22.182,19.167-35.671,25.275c-12.077,5.471-24.883,8.836-37.671,12.166c-1.693,0.439-3.558,0.224-5.343,0.311
		C42.764,312.171,42.736,312.3,42.707,312.428z"/>
	<path fill="#526B43" d="M71.312,259.534c-5.086-1.052-11.793-2.388-18.472-3.862c-1.377-0.304-2.717-0.995-3.944-1.727
		c-3.341-1.991-4.166-4.648-1.845-7.822c1.76-2.405,3.988-4.829,6.562-6.215c14.51-7.821,29.867-12.795,46.595-11.104
		c7.382,0.746,14.678,2.482,21.962,4.012c2.437,0.511,5.189,1.418,5.784,4.328c0.663,3.239-1.596,5.334-3.968,6.867
		c-10.923,7.066-22.39,12.766-35.695,13.741C83.214,258.126,78.158,258.805,71.312,259.534z"/>
	<path fill="#526B43" d="M134.534,288.506c9.209,0.064,18.218,1.484,27.047,4.074c1.053,0.309,2.103,0.667,3.102,1.118
		c3.721,1.685,4.45,4.657,1.81,7.741c-1.039,1.213-2.247,2.373-3.592,3.213c-8.657,5.412-17.656,10.188-27.813,12.021
		c-13.763,2.486-27.575,3.948-41.246-0.669c-1.6-0.54-3.196-1.149-4.69-1.928c-3.26-1.694-4.317-4.222-2.356-7.326
		c1.621-2.565,3.787-5.22,6.365-6.679c10.317-5.84,21.375-9.762,33.237-11.127c1.35-0.156,2.699-0.352,4.053-0.424
		C131.808,288.448,133.173,288.506,134.534,288.506z"/>
	<path fill="#526B43" d="M221.646,264.793c-0.883,2.325-1.289,5.023-2.752,6.893c-2.593,3.306-5.658,6.306-8.85,9.059
		c-2.839,2.449-6.449,2.771-9.845,1.273c-2.923-1.287-5.703-2.98-8.354-4.775c-6.679-4.522-6.179-11.08-5.332-18.055
		c1.258-10.371,12.67-16.222,21.612-15.637c4.257,0.277,6.726,2.121,8.399,5.78C218.762,254.206,221.031,259.044,221.646,264.793z"
		/>
</g>
</svg>
