<svg width="160" height="171" xmlns="http://www.w3.org/2000/svg">

 <g>
  <title>background</title>
  <rect fill="none" id="canvas_background" height="173" width="162" y="-1" x="-1"/>
 </g>
 <g>
  <title>Layer 1</title>
  <path id="svg_1" d="m18.789,61.146c0.635,0.299 2.194,1.148 2.926,0.627c0.731,-0.522 0.836,-1.045 0.836,-2.612s-0.035,-1.671 3.169,-1.671s2.507,0 2.507,2.508c0,2.507 0.209,4.316 2.578,6.337c2.367,2.021 8.775,8.149 15.392,6.826c2.089,-1.812 2.647,-4.666 0.976,-6.965s-5.225,-6.06 -11.91,-8.706c-6.687,-2.647 -7.592,-1.602 -7.73,-2.716c-0.141,-1.115 0.068,-1.95 0.975,-2.299c0.069,-1.463 -0.069,-2.021 1.532,-1.951c1.393,-0.417 1.88,-0.695 1.602,-1.671s-1.462,-2.438 -0.069,-3.273s1.532,-0.349 3.761,2.159c2.229,2.507 4.04,1.811 4.179,1.254c0.14,-0.558 0.418,-2.926 -1.322,-5.99c-1.254,-2.299 0.209,-2.229 0.835,-2.299c0.627,-0.069 0.767,-0.975 1.532,-0.835c0.767,0.14 1.115,0.278 1.602,1.532c0.697,0.139 2.159,0 3.273,-2.299c0.697,-0.975 0.697,-0.139 1.812,0c1.114,0.14 2.159,-0.487 2.159,0.279c0,0.766 -0.766,5.432 -0.557,7.382s0.904,6.199 2.576,5.99s2.717,-2.438 2.577,-6.547s-0.976,-7.174 0.418,-7.174c1.393,0 2.716,-0.627 3.343,0.767c1.115,1.044 1.742,1.392 2.786,0.069c0.767,-0.487 2.786,-0.349 2.368,0.905s-1.463,3.621 -1.323,4.736c0.14,1.114 0.183,1.811 1.38,1.811s3.495,-3.621 4.54,-3.831c0.14,-1.323 0.069,-2.646 1.462,-2.855c1.395,-0.208 1.951,-1.141 1.812,-1.998c-0.141,-0.857 -2.23,-2.599 -0.488,-4.618c0.418,-0.488 -0.348,-0.767 -0.279,-1.532c0.07,-0.767 0.14,-1.741 2.16,-1.811c2.02,-0.07 4.736,0 4.945,-1.812c0.209,-1.811 -2.926,-3.621 -2.229,-5.224c0.696,-1.602 1.603,-0.418 2.786,-1.184c1.184,-0.767 1.811,-2.717 3.482,-1.463s0.209,3.134 2.368,5.502s2.438,2.09 2.995,0.767c0.557,-1.323 2.785,-2.368 3.134,-0.696c0.349,1.671 -0.418,4.109 0.905,2.507c0.07,-2.02 0.557,-4.388 0,-5.084c-0.557,-0.697 -5.711,-5.711 -4.318,-6.617c1.393,-0.905 2.786,-0.278 3.344,-0.975c0.557,-0.696 2.09,-2.646 2.994,-1.881c0.906,0.767 0.279,3.971 1.742,4.388c1.462,0.418 2.298,-0.835 2.507,-2.089s0.001,-4.457 2.021,-4.388s2.924,0.139 3.064,2.02c0.139,1.881 1.253,2.995 2.716,2.02c1.463,-0.975 2.855,-2.02 3.273,0.349c0.836,0.487 1.045,0.557 2.021,0.487c0.975,-0.069 1.74,-0.209 1.811,3.343c0.348,1.463 0.766,3.204 2.507,1.324c1.741,-1.881 2.577,-3.482 4.249,-1.742c0.487,0.976 0.696,1.881 2.089,1.742c1.394,-0.14 2.438,1.88 1.95,2.507s-3.83,1.881 -3.691,2.925c0.14,1.045 0.069,1.463 2.855,1.812c2.786,0.348 0.488,1.95 0.279,2.438s-0.906,1.672 -0.348,1.741c1.671,-1.114 3.83,-4.109 4.178,-3.343c0.349,0.766 0,2.438 0.557,2.925c0.559,0.488 2.508,0.14 2.926,0.696c0.418,0.558 0.418,1.741 0,2.298c-0.418,0.558 -3.621,2.021 -2.855,4.041c0.766,0.905 1.463,0.766 3.17,-1.254c1.705,-2.021 3.098,-4.179 3.655,-1.045s1.255,1.95 2.647,2.438s0.208,2.344 -0.558,2.739c-0.767,0.396 -2.507,2.066 -1.881,2.624c0.627,0.557 1.499,0.904 3.083,1.045c1.584,0.139 3.186,0.139 2.629,1.602c-0.558,1.463 -1.394,1.603 -1.324,3.761c0.07,2.159 0.558,2.368 2.02,2.368c1.463,0 2.299,2.229 0.349,3.9s-4.526,2.855 -3.482,4.318c1.046,1.462 2.299,2.02 5.085,1.881c1.322,0.139 1.463,2.229 0.836,2.925s-2.855,0.905 -2.299,2.02c0.557,1.115 1.881,2.855 0.836,3.691c-0.766,0.209 -1.811,1.393 -2.159,1.741c-0.976,0 -0.976,0.14 -4.388,-2.926c-2.229,-1.114 -4.945,-3.761 -9.125,-2.158c-1.672,1.95 -2.994,4.735 3.901,8.775c3.203,1.394 3.69,1.323 3.273,3.831c-0.07,0.836 -1.603,0.487 -1.394,1.603c0.209,1.113 0.627,2.716 2.438,1.601c1.811,-1.114 2.368,-0.348 3.9,1.741c0.349,1.046 -2.298,2.509 -2.855,4.18c-0.557,1.671 -0.696,2.507 1.045,2.576c1.741,0.07 5.015,-2.785 5.642,-2.02c0.627,0.767 1.835,1.463 1.544,2.368s-2.102,2.646 -1.127,3.552c0.977,0.906 3.205,1.603 2.857,2.438c-0.35,0.836 -0.768,2.297 -0.906,2.925c-0.975,0.069 -5.293,-1.045 -8.148,0s-9.751,3.762 -8.984,6.06c1.184,1.741 0.904,3.97 8.078,3.9s8.984,-2.229 9.682,-1.324c0.696,0.906 1.254,1.882 1.323,2.996s-2.577,1.184 -2.507,2.438c0.068,1.253 0.139,2.855 1.74,2.994c0.418,0.627 -0.557,0.837 -0.487,1.324s0.278,2.159 -0.278,2.507c-0.558,0.349 -2.786,-2.577 -6.06,-2.229s-4.109,2.159 -1.88,4.179c2.229,2.02 3.134,2.299 2.716,2.855c-0.418,0.558 -2.089,1.323 -2.089,2.786s0.348,4.388 -0.559,3.831c-0.904,-0.558 -3.343,-2.925 -3.551,-1.393c-0.21,1.531 -0.14,2.506 -1.115,2.367c-0.975,-0.14 -1.881,1.185 -2.09,-3.482c-0.696,-1.741 -4.109,-5.153 -6.756,-8.148s-7.661,-9.124 -12.745,-7.244c-5.085,1.881 1.603,12.468 3.482,14.07c1.881,1.602 6.338,7.8 14.278,7.034c0.627,3.204 1.044,5.153 0.417,5.153c-0.626,0 -3.343,-0.348 -3.343,0.836c0,1.185 -0.835,1.741 0.767,4.109c0,0 -2.09,3.482 -3.483,2.089c-1.393,-1.393 -5.85,-6.687 -7.521,-5.78c-1.672,0.905 -2.02,1.881 -1.602,4.248c0.418,2.368 1.463,4.04 1.672,4.736c0.209,0.697 -0.627,1.603 -2.021,2.229c-1.393,0.626 -3.064,1.671 -3.691,0c-0.627,-1.672 -2.298,-3.483 -3.273,-1.882c-0.975,1.603 -1.254,2.99 -1.741,2.784c-0.486,-0.207 -1.254,-2.018 -2.02,-2.227c-0.766,-0.208 -1.184,-0.696 -1.184,-0.696s-3.273,-0.348 -3.553,0.418c-0.278,0.767 -1.045,2.09 -1.741,0.418s-2.786,-3.552 -4.388,-1.881c-1.602,1.672 -2.16,1.185 -3.553,0.419c-1.393,-0.768 -1.88,-1.254 0.627,-3.971c0.559,-2.229 1.254,-4.388 0.697,-6.825s-2.717,-1.672 -3.762,-0.836s-3.203,3.553 -3.83,3.204s-0.418,-0.836 -0.14,-1.812c0.278,-0.975 0.349,-1.812 -0.696,-1.881s-3.482,-0.626 -4.039,0.21c-0.558,0.836 -2.438,3.97 -1.603,6.686s3.9,6.896 3.9,7.802c0,0.905 0.418,1.322 -1.114,1.392c-1.533,0.07 -2.995,-0.208 -3.413,0.488c0,1.045 -1.462,1.95 -1.811,0.836c-0.349,-1.115 -2.438,-4.597 -3.691,-2.438c-1.254,2.158 -1.95,2.994 -2.995,1.811s-1.323,-0.627 -2.09,-0.975c-0.904,-1.045 -0.626,-2.299 0.627,-3.204c1.254,-0.906 2.09,-3.413 1.672,-6.06s-3.482,-2.995 -5.084,-1.045s-3.482,4.457 -4.249,4.736c-0.767,0.278 -1.811,0.627 -2.298,-1.532c-1.045,-0.976 -1.951,-1.045 -2.578,-1.463c-0.626,-0.418 -0.766,-1.324 0.488,-2.438c1.254,-1.114 1.741,-2.646 -0.139,-4.04c-1.115,-0.069 -1.533,1.114 -2.787,0.905s-2.02,-0.905 -2.785,-0.836c-0.767,0.07 -0.558,0.627 -0.767,0.836s-0.836,0.905 -1.185,0.07c-0.348,-0.836 -0.486,-1.95 -0.348,-2.786c0.14,-0.836 0.418,-1.741 -0.209,-2.09c-0.627,-0.348 -1.254,-0.139 -1.811,-0.069c-0.558,0.069 -2.299,-0.418 -1.881,-1.114c0.418,-0.697 1.394,-1.533 1.672,-2.299s-0.627,-1.811 -1.463,-1.254c-0.836,0.558 -1.811,1.254 -2.855,3.135c-0.279,0.696 -1.881,0.349 -2.299,-1.185c-0.557,-0.487 -2.158,0.279 -2.855,-0.069c-0.696,-0.348 -2.02,-1.603 -1.254,-2.577c0.767,-0.975 3.204,-3.761 3.482,-7.801c0.279,-4.039 -0.278,-6.407 -2.785,-6.198c-2.508,0.209 -3.273,0.905 -4.248,1.672c-0.977,0.766 -2.021,1.045 -2.229,-0.279c-0.209,-1.323 -0.976,-1.672 -1.88,-0.766c-0.906,0.905 -4.04,-1.881 -3.762,-2.438c0.279,-0.558 1.114,-1.811 1.114,-2.717c0,-0.905 0.627,-3.273 2.298,-3.552c1.672,-0.279 5.085,-0.836 7.313,-2.09c2.229,-1.254 3.622,-2.577 3.692,-3.134c0.068,-0.557 -2.369,-3.203 -3.274,-3.064s-2.368,0.905 -3.831,2.438c-0.486,0.696 -1.393,0.627 -1.602,-1.184c-1.045,-0.07 -3.97,-0.07 -6.791,2.438c-2.82,2.507 -5.396,0.348 -5.188,-0.906c0.209,-1.254 1.185,-2.089 1.603,-3.481c0.418,-1.394 0.139,-1.741 -0.349,-2.229c-0.487,-0.487 -2.577,-1.323 -2.577,-1.323s-0.278,-1.044 0.348,-1.811c0.627,-0.767 0.627,-0.767 0.627,-0.767s-0.627,-1.184 0,-1.602s0.976,-0.349 2.717,0.209s2.717,0.487 2.646,-0.069c-0.069,-0.558 -2.09,-1.532 -1.602,-2.021c0.488,-0.487 2.02,-1.602 2.717,-1.602c0.696,0 1.044,-0.279 1.044,-0.279l-1.88,-0.835c0,0 -1.324,0.139 -2.16,-0.14c-0.835,-0.278 -1.113,-0.534 -1.045,-3.541c0.21,-1.543 0.21,-1.474 3.762,-1.683c1.323,-0.209 1.323,-2.646 1.184,-3.135c-0.139,-0.486 -0.557,-0.417 -2.507,0.07s-3.064,1.602 -4.04,1.741c-0.975,0.14 -0.904,-1.184 -1.393,-2.717c-0.488,-0.626 -1.254,-1.114 -0.07,-2.229c1.185,-1.114 1.951,-2.576 1.115,-3.83s-1.741,-3.344 -0.488,-3.831c1.254,-0.487 3.553,0.627 5.294,0.487s4.249,-0.069 3.482,-1.462c-0.767,-1.394 -2.855,-2.996 -4.318,-3.901c-1.462,-0.904 -0.976,-0.904 -0.487,-2.438c0.486,-1.527 0.587,-2.371 1.565,-1.909zm50.879,-13.478c0,0.418 1.566,0.104 2.299,0.313c0.73,0.209 1.253,1.776 0.104,2.403c-6.686,1.463 -8.253,5.745 -11.387,10.339c-3.135,4.593 -1.776,7.943 1.357,11.601c3.135,3.656 13.06,5.224 15.785,5.641c2.726,0.418 4.691,-1.671 5.842,-2.611c1.148,-0.94 1.775,-4.91 1.775,-7.522c0,-2.611 0.731,-7.208 1.149,-8.775s-0.767,-4.701 -1.185,-7.348s-3.064,-5.711 -4.875,-5.99c-1.811,-0.278 -1.811,-0.278 -4.318,-1.671c-2.507,-1.394 -7.244,0 -7.244,0s0.698,3.203 0.698,3.62zm-18.387,47.222c2.716,-0.626 5.432,-3.761 6.79,-6.276c1.358,-2.515 -4.283,-3.335 -8.984,-3.753s-8.358,7.522 -8.358,7.522c4.335,3.865 10.552,2.507 10.552,2.507zm2.925,19.746c2.403,-3.291 1.619,-7.68 -0.575,-8.149c-2.193,-0.47 -5.119,3.813 -5.641,5.172c-0.522,1.357 -0.732,9.402 -0.732,9.402c2.455,-0.888 4.545,-3.134 6.948,-6.425zm22.983,-9.822c2.561,-2.507 4.701,-6.373 4.858,-10.917c0.157,-4.545 -4.597,-4.127 -6.896,-3.656c-2.298,0.47 -5.432,3.396 -7.312,8.933s0.992,10.342 0.992,10.342c4.231,-1.253 5.8,-2.194 8.358,-4.702zm11.023,28.992c0.888,-0.365 0.366,-1.044 0,-1.618c-0.366,-0.575 -1.149,-0.523 -1.985,-0.471c-0.836,0.052 0,2.873 0,2.873s1.097,-0.418 1.985,-0.784zm2.925,-3.708c0.836,-0.888 4.18,-6.947 4.283,-10.344c0.105,-3.395 -1.984,-6.999 -5.484,-6.842c-3.5,0.156 -4.127,4.492 -4.08,5.275s1.781,-0.522 2.096,-0.679c0.312,-0.157 1.828,-1.149 2.611,-0.418c1.463,1.515 1.149,2.142 0.397,2.925c-0.751,0.784 -1.442,1.358 -0.92,2.612c0.522,1.253 1.149,1.724 0.836,2.663c-0.313,0.94 -1.515,2.717 -1.671,2.717c0,0.001 0.94,1.203 1.932,2.091zm10.238,23.297c0,0 3.553,-3.97 3.082,-8.984c-0.47,-5.015 -2.455,-6.582 -3.552,-6.582s-2.246,1.358 -1.619,1.725c0.627,0.365 0.888,0.47 0.888,1.097s-0.615,1.097 -1.064,1.357c-0.45,0.262 -0.816,1.568 -0.764,3.135c0.052,1.566 0.47,5.013 3.029,8.252zm2.699,-49.381c4.945,3.761 11.771,-2.159 14.348,-4.736c2.578,-2.576 6.617,-8.148 7.522,-11.422c0.905,-3.274 -1.672,-4.04 -3.064,-4.109c-1.393,-0.07 -1.323,4.667 -1.323,5.642s-1.881,0.418 -2.438,0c-0.14,-1.463 -0.836,-1.254 -2.717,-0.975c-1.881,0.278 -2.299,-0.418 -2.508,-1.254c-0.208,-0.836 1.324,-2.995 1.742,-6.687c-0.35,-12.188 -5.643,-14.557 -9.473,-14.975s-12.746,21.243 -12.746,21.243c-1.88,9.89 5.712,13.512 10.657,17.273z" fill="#436461"/>
 </g>
</svg>