<?xml version="1.0" ?><svg viewBox="0 0 60 60" xmlns="http://www.w3.org/2000/svg"><title/><g id="text"><text font-family="MyriadPro-Regular, Myriad Pro" font-size="9" transform="translate(6.76123 -49.60986)"><tspan letter-spacing="-0.01199em"/><tspan x="4.36523" y="0"/><tspan letter-spacing="-0.04096em" x="18.48584" y="0"/><tspan letter-spacing="-0.04503em" x="20.0249" y="0"/><tspan x="24.09277" y="0"/><tspan letter-spacing="0.00401em" x="29.05176" y="0"/><tspan x="32.03076" y="0"/></text></g><g data-name="Layer 1" id="Layer_1"><path d="M41,26a3,3,0,1,0-3,3A3.00328,3.00328,0,0,0,41,26Zm-3,1a1,1,0,1,1,1-1A1.00068,1.00068,0,0,1,38,27Z"/><path d="M58.41406,51l1.293-1.293A.99991.99991,0,0,0,59,48a18.47505,18.47505,0,0,0-7.50812,1.12286l-6.68945-4.7782a14.90342,14.90342,0,0,0,1.17706-5.39935c5.39355-.60645,9.70508-6.17285,10.00391-13.16992a2.9935,2.9935,0,0,0-.80273-2.15625C52.79,21.05762,48.87207,21.001,42.43652,21A5.84264,5.84264,0,0,0,38,19a7.00755,7.00755,0,0,0-6.998,6.84961c-.7002,2.26074-2.38184,2.78125-5.75684,3.63574C20.78223,30.61621,14.6709,32.16406,8.21875,40.375a17.44443,17.44443,0,0,1-4.25586,3.5332C2.18848,45.0752.65625,46.083.38965,47.73535a4.27649,4.27649,0,0,0,1.0307,3.16046A4.47428,4.47428,0,0,0,0,54c0,4.26172,6.66309,6,23,6a.99991.99991,0,0,0,.707-1.707L22.41406,57l1.12274-1.12274,2.92773-.95251,2.6712,4.57916A1.00072,1.00072,0,0,0,30,60H40a.99991.99991,0,0,0,.707-1.707L39.41406,57l1.293-1.293A.99991.99991,0,0,0,40,54a20.46837,20.46837,0,0,0-6.60193.77692l-1.25043-2.00824A21.91025,21.91025,0,0,0,41.539,48.64545l-.12006.168,7,5A.9995.9995,0,0,0,49,54H59a.99991.99991,0,0,0,.707-1.707ZM14.77734,57.80371a10.82877,10.82877,0,0,1,5.75684-1.75293L20.293,56.293a.99964.99964,0,0,0,0,1.41406l.27832.27832Q17.40723,57.94727,14.77734,57.80371ZM37.293,57.707l.293.293H31.51172a10.59612,10.59612,0,0,1,6.02246-1.94922L37.293,56.293A.99964.99964,0,0,0,37.293,57.707ZM31.02771,50.97l-1.71912-2.761a17.54134,17.54134,0,0,0,3.89063-4.88672,7.17068,7.17068,0,0,1,3.248-3.42773,1.00012,1.00012,0,0,0-.89453-1.78906,9.08377,9.08377,0,0,0-4.08105,4.209,15.51117,15.51117,0,0,1-4.09668,4.9043.99983.99983,0,0,0-.22363,1.30957L31.54907,55.59a10.12556,10.12556,0,0,0-1.69263,1.17859l-5.56738-9.543a17.51441,17.51441,0,0,0,3.91016-4.90332,7.17068,7.17068,0,0,1,3.248-3.42773,1.00012,1.00012,0,0,0-.89453-1.78906,9.08377,9.08377,0,0,0-4.08105,4.209,15.51117,15.51117,0,0,1-4.09668,4.9043,1.00215,1.00215,0,0,0-.23926,1.28516l3.29736,5.65265-2.59326.84363a19.01124,19.01124,0,0,0-6.90015.94232l-2.67017-.76282c4.10938-1.03223,6.31543-2.46289,6.85547-4.40625.76074-2.73828-1.99707-5.46875-4.48437-7.542a1.00054,1.00054,0,1,0-1.28125,1.53711c2.8877,2.40527,4.17871,4.24609,3.83887,5.46973-.25391.91113-1.80469,2.6123-9.35059,3.77344a1.00016,1.00016,0,0,0-.12207,1.9502L13.439,56.30859A10.31262,10.31262,0,0,0,12.293,57.293a.995.995,0,0,0-.2168.32422C5.37988,57.0459,2,55.83594,2,54c0-2.36523,4.92773-5,12-5a1,1,0,0,0,0-2c-4.52893,0-8.48267,1.0271-11.02527,2.64667a2.4155,2.4155,0,0,1-.61047-1.593c.127-.7832,1.31836-1.56738,2.69823-2.47461a19.34222,19.34222,0,0,0,4.72365-3.96094c6.03613-7.68262,11.76562-9.13379,15.9502-10.19434,3.32813-.84277,6.20313-1.57129,7.22559-5.14941A1.00084,1.00084,0,0,0,33,26a5.00589,5.00589,0,0,1,5-5,4.00656,4.00656,0,0,1,3.25488,1.667A1.00005,1.00005,0,0,0,42,23c6.15332,0,9.86719,0,11.71875,1.98438a.98692.98692,0,0,1,.233.50348l-.00446.00238a9.70159,9.70159,0,0,1-6.40137,2.64648,14.27991,14.27991,0,0,0-8.127,3.0498.99968.99968,0,1,0,1.16211,1.627,12.42268,12.42268,0,0,1,7.14746-2.68555,11.20972,11.20972,0,0,0,5.9433-1.93567C52.61877,33.29,49.11823,37,45,37a.99942.99942,0,0,0-1,1C44,45.31207,40.2323,49.07928,31.02771,50.97Zm17.28088.30731-5.45428-3.89563a11.5165,11.5165,0,0,0,.98364-1.269l5.732,4.0943A10.32207,10.32207,0,0,0,48.30859,51.27734ZM50.51172,52a10.59612,10.59612,0,0,1,6.02246-1.94922L56.293,50.293a.99964.99964,0,0,0,0,1.41406l.293.293Z"/></g></svg>