<?xml version="1.0" encoding="utf-8"?>
<!-- Generator: Adobe Illustrator 16.0.0, SVG Export Plug-In . SVG Version: 6.00 Build 0)  -->
<!DOCTYPE svg PUBLIC "-//W3C//DTD SVG 1.1//EN" "http://www.w3.org/Graphics/SVG/1.1/DTD/svg11.dtd">
<svg version="1.1" id="Layer_1" xmlns="http://www.w3.org/2000/svg" xmlns:xlink="http://www.w3.org/1999/xlink" x="0px" y="0px"
	 width="188.488px" height="171px" viewBox="0 0 188.488 171" enable-background="new 0 0 188.488 171" xml:space="preserve">
<path fill="#436461" d="M41.571,74.443c0,0-1.115-1.454,0-2.375c0.437-0.339,0.823-0.727,0.437-1.066
	c-0.389-0.339-1.648-1.454-2.473-2.472c-0.824-1.019-2.084-4.848-1.891-7.368c0.194-2.521,0.242-4.75,1.988-7.513
	c1.502-1.552,4.361-3.781,6.107-3.151c0.242-1.356,1.066-2.423,2.035-2.472c0.775-0.291,1.357-1.115,2.521-2.763
	c1.454-1.745,6.06-5.72,7.465-6.641s2.618-0.485,3.296-0.631c0.679-0.145,3.345-1.987,6.059-2.132c1.357-0.146,4.799-0.291,7.95,0
	c3.15,0.29,8.531,3.441,8.482,4.168c-0.048,0.728-0.194,0.775-0.728,0.824s-0.92-0.533-2.762-0.728
	c-1.843-0.193-3.685-0.581-5.721-0.097c-2.035,0.485-5.38,1.454-5.719,2.327c-0.34,0.872-0.389,1.6,0.484,1.842
	c0.872,0.242,1.454-0.146,2.472-0.679c1.019-0.533,2.085-1.309,3.345-0.437c0.533,0.146,1.357-0.146,2.182-0.097
	s0.63,0.388,1.211,0.484c0.582,0.098,1.066-0.193,1.455-0.048c0.387,0.146,0.533,0.097,1.211,0.872c0.824,0.291,0.34,0,1.357,0.194
	c1.018,0.193,1.793,0.775,0.728,1.309c-0.776,0.775-5.623,1.212-7.756,2.472c-2.133,1.261-6.253,2.812-8.046,4.218
	c-1.794,1.405-6.593,6.301-9.453,6.495c-2.859,0.193-5.864,0.436-6.107,0.823c-0.242,0.389-4.459,3.006-2.035,6.06
	c1.212,0.291,1.502,0.581,3.49-0.679c1.987-1.261,6.785-3.103,9.403-3.587c2.617-0.484,7.513-1.6,12.845-0.291
	c2.473,0.097,3.732,0.194,5.139-1.405c0,0,0.097-0.582,0.775,0.581c0.582,0.533,0.679,0.098,1.212-0.29
	c0.533-0.389,0.685-0.34,1.045,0.29c0.554,0.291,0.7,0.146,0.991-0.193c0.29-0.34,0.775-0.388,1.162,0.097
	c0.389,0.484,0.533,0.388,0.728,0.146s0.533-0.679,1.019-0.146c0.484,0.533,0.63,0.97,1.018,0.921
	c0.388-0.048,0.775-0.775,0.727-1.309c-0.048-0.533,0.679-0.049,1.066,0.339c0.389,0.389,1.212,0.97,1.212,0.97
	s0.533,0.194,1.891,0.146s3.829-0.727,6.593-0.679c2.763,0.049,8.046,0.873,12.554,2.86s4.799,2.956,6.011,2.763
	c1.066,0.146,2.182,0.533,2.084-0.728c-0.097-1.26-1.26-2.521-2.714-3.732c-1.454-1.211-0.485-1.066-3.054-1.987
	c-2.569-0.921-9.307-4.508-10.955-7.367c-1.018-0.873-4.411-2.473-5.962-3.248c-1.552-0.775-3.829-1.26-5.429-1.647
	c-1.6-0.389-3.539-0.291-4.363-0.873s-1.744-1.647-1.744-1.647s0.63-1.115,1.891-0.824c0.823,0.291,0.629,0.048,0.969-0.291
	c0.34-0.34,1.551-0.533,2.182-0.242c0.63,0.291,0.436-0.582,0.969-0.679s1.164-0.388,1.745,0.339
	c0.728,0.049,0.485-0.097,1.212-0.679c0.728-0.581,1.406-0.29,2.133,0.049c0.728,0.34,2.521,1.018,2.521,1.018s1.115,0.437,1.357,0
	c0.242-0.436,0.63-1.211,0.049-1.6c-0.582-0.388-2.424-1.066-2.424-1.066s-1.939-0.969-4.12-1.163
	c-2.182-0.193-4.75-0.484-5.672,0.097c-0.92,0.582-1.357,0.679-1.986,0.582c-0.631-0.097-0.533-1.018,0.484-1.891
	c1.018-0.872,4.217-2.714,6.398-2.812c2.181-0.097,8.53-0.339,11.924,0.679c3.393,1.019,2.617,1.261,4.944,1.454
	c1.793,0.631,4.944,3.248,6.979,5.526c2.036,2.278,3.732,4.362,4.508,4.557c0.775,0.193,1.6,0.775,1.454,2.035
	c1.454,0.146,5.963,1.6,7.174,4.218c1.212,2.617,1.164,3.393,1.164,5.768s0.242,4.993-1.115,7.465
	c-1.26,1.454-3.878,3.975-3.247,4.362c0.63,0.388,1.163,0.728,1.018,1.309c-0.146,0.582-0.582,1.066-0.582,1.066
	s1.019,0.194,1.648,2.86s1.163,4.168,0.872,4.459s-0.533,0.775-0.533,0.775s1.164-0.097,1.454,0c0.291,0.098,0.97,0.582,0.97,1.745
	c0,1.164-0.242,3.781-0.242,3.781s-0.049,1.163,0.242,0.97c0.291-0.194,0.582-0.582,0.679-1.891s0.484-4.169,1.163-4.993
	c0.679-0.533,0.533-3.296,0.921-3.926s0.728-0.242,0.97-1.309s0.049-6.205,2.229-7.998c0,0,0.315-0.049,0.291-0.34
	c-0.024-0.29-0.049-0.339-0.775-1.356c-0.728-1.019-2.545-3.611-2.787-4.46c-0.242-0.848-1.624-3.555-1.042-5.105
	c-0.323-0.775-1.81-2.715-1.229-2.779c0.582-0.064,2.65,1.163,4.008,2.973c1.356,1.811,5.687,7.304,5.881,9.049
	c0.193,1.744,0,1.874,0.646,2.649s1.099,3.167,0.904,4.395c-0.194,1.229-0.904,2.197-0.904,8.272
	c-0.518,1.164-2.585,5.042-3.49,5.946c-0.905,0.905-2.649,3.426-5.816,4.201c-0.194,1.228,0.129,2.133-0.776,2.326
	c-0.904,0.194-2.326,0-2.326,0s-5.3,4.848-6.722,5.3c1.938,0,3.167-0.711,4.007-0.84s2.068-0.452,3.231-0.129
	c1.745-0.259,5.3-1.034,7.95-5.235c2.649-4.201,4.201-8.596,5.688-8.919c0.646-0.388,0.581-1.874,1.68-4.848
	c1.099-2.973,1.938-5.493,3.231-6.592c0.194-2.133,0-2.844,0-2.844s1.164-0.13,1.293,1.938s0,4.524,0,4.524s-0.97,7.691-2.715,9.371
	c0.323,1.034-0.064,2.263-1.551,5.817c-1.486,3.554-2.585,5.558-2.585,5.558s-0.453,1.486-3.685,3.167s-4.718,2.844-8.919,3.103
	c-0.322,0.71,0.065,1.098-1.744,1.098c-2.327,0.194-15.317,0.971-17.645,1.423c-3.037,1.163-5.429,2.585-5.041,2.714
	s0.517,0.905,2.715,0.775c2.197-0.129,8.337-1.551,11.31-2.003c2.974-0.453,6.334-1.293,6.786-0.646
	c0.453,0.646,0.194,0.388,2.909,0.517c2.714,0.13,4.718,0.905,6.01,1.357c1.293,0.452,2.779,1.938,3.297,2.585
	c0.517,0.646,2.778,2.973,3.684,4.072c0.904,1.099,2.132,2.521,2.067,3.167c-0.063,0.646-0.646,2.133-2.521,4.459
	c-1.874,2.326-6.075,6.593-7.755,7.238c-1.681,0.646,0.193-1.099,0.193-1.551s-0.129-0.711,0.518-1.616
	c0.646-0.904,3.619-5.429,4.33-5.688c-1.745-2.003-8.854-8.53-10.6-9.048c-1.68,0.129-1.81,0.841-1.81,0.841
	s-1.615,0.064-3.49,0.064c-1.874,0-9.5,0.969-9.5,0.969l-3.878,0.582c0,0-2.585,0.453-4.266,0.518
	c-1.68,0.064-5.234-1.034-5.105-0.646s0.904,0.646,1.81,0.904s4.912,0.259,7.433,0.323s8.66-0.711,10.729-0.517
	c2.068,0.193,1.486,1.228,1.745,1.356c0.84,0.194,3.425,0.647,4.136,2.65s0.259,6.916,0.064,9.112
	c-0.193,2.197-0.969,3.232-4.653,5.235c-3.684,2.003-5.816,3.878-12.085,3.231c0.452-0.775,5.493-3.878,9.888-6.075
	c-0.323-4.072-1.228-7.885-0.064-8.467c-2.068-0.193-16.998-0.775-17.32-1.422c-0.323-0.646-0.323,0.065-0.905,0.259
	c-0.581,0.194-2.262-0.064-3.489-1.099c-1.229-1.034-1.81-1.486-2.133-1.228c-0.324,0.258-2.198,0.711-2.65,0.064
	s-1.099-1.229-2.456-0.518s-4.007-0.258-5.234,0.518c-1.229,0.775-4.309-0.129-5.816-0.129c-1.939,0-2.327,0.452-3.168,0.064
	c-0.84-0.388-2.391-1.357-3.296-0.388c-0.904,0.969-1.938,0.904-3.167,0.452c-1.357,0.323-1.422,1.099-2.779,1.681
	c-1.356,0.581-2.196,0.388-6.721,0.581c-4.524,0.194-12.474,1.229-13.701,0.775c0,2.844-0.26,6.915-0.841,8.272
	c0.13,0.711,1.293,0.711,3.942,2.198c2.65,1.486,6.012,3.037,6.527,4.071c-0.193,0.84-3.296,0.195-5.752,0.13
	c0,0-10.729-3.685-10.922-6.27c0,0-0.646-8.531-0.259-9.985s1.212-3.393,4.169-3.538c0.291-0.97,0.193-1.552,1.938-1.648
	s6.447-0.097,6.447-0.097l6.302,0.484c0,0,3.635,0.097,4.022,0.097s1.6-0.048,2.133-0.63s0-0.437-0.872-0.339
	c-0.873,0.097-3.055,0.29-4.363,0.097c-1.309-0.194-4.847-0.437-6.641-0.728c-1.793-0.29-11.342-1.163-13.136-0.872
	c-0.872-0.484-1.114-1.357-1.794-0.921c-0.678,0.437-4.41,2.666-5.234,3.393c-0.824,0.728-5.865,4.751-5.525,5.332
	c0.339,0.582,4.799,6.156,5.332,9.161c-0.533,0.34-2.263-0.29-5.349-3.829c-3.086-3.538-3.425-2.666-4.589-7.61
	c0,0-0.339-0.921,0-1.744c0.34-0.824,2.375-2.909,2.375-2.909l4.169-4.459c0,0,3.103-1.842,4.944-2.036
	c1.842-0.193,4.799-0.097,5.187-0.146c0.388-0.048,0.581-1.114,1.794-1.018c1.211,0.097,7.174,0.97,8.821,1.261
	c1.647,0.29,6.688,1.647,7.998,1.502c1.309-0.146,3.247-0.339,3.489-0.484c-2.326-1.018-4.071-2.666-5.768-2.908
	c-1.697-0.242-12.603-1.115-18.855-1.406c-1.115-0.484-0.873-1.018-0.873-1.018s-6.834-0.679-11.148-4.653
	c-2.277-2.715-5.09-9.694-5.914-11.778c0.098-1.552,0.438-1.115,0.438-1.357c-0.533-1.261-4.848-12.312-1.891-15.851
	c0.581,0.388,0.339,2.763,0.339,2.763s1.212,0.388,3.151,6.398c1.938,6.011,1.356,5.429,1.356,5.429s2.036-0.484,3.005,2.085
	c0.97,2.568,3.103,7.997,6.98,10.082c3.878,2.084,4.557,2.035,5.187,1.793s2.133-0.146,3.394,0.437
	c1.26,0.582,2.811,0.437,2.811,0.437s-4.217-3.297-6.834-4.702S26.545,84.865,26.496,82.296c-0.049-2.568-0.339-6.592-0.339-6.592
	s-1.6-4.46-0.679-5.478s1.502-1.018,1.502-1.745c0-0.727,0.824-4.362,3.539-7.755c2.715-3.394,5.574-6.351,6.253-5.769
	c-0.097,0.97-1.163,2.133-1.163,2.133s0.921,3.055-4.557,10.906c0.097,0.824,0.921,1.26,1.26,1.891
	c0.34,0.63,0.194,2.423,0.242,2.859c0.049,0.437,2.812,6.835,2.424,8.968c0.582,1.018,1.066,4.928,2.084,6.123
	c0,0,0.291,0.221,0.243-1.158c-0.049-1.378-0.243-4.238,1.987-4.577C39.051,80.066,38.905,77.837,41.571,74.443z"/>
</svg>
