<svg width="97" height="93" xmlns="http://www.w3.org/2000/svg">

 <g>
  <title>background</title>
  <rect fill="none" id="canvas_background" height="95" width="99" y="-1" x="-1"/>
 </g>
 <g>
  <title>Layer 1</title>
  <g id="Icons">
   <g id="svg_2">
    <path stroke="#020202" id="svg_3" d="m52.43248,48.328022c3.301003,-1.688004 5.587997,-5.086998 5.587997,-9.042l0,-8.614998c0,-5.619003 -4.571999,-10.190002 -10.190994,-10.190002s-10.191002,4.570999 -10.191002,10.190002l0,8.614998c0,3.955002 2.288002,7.353996 5.587997,9.041c-11.228996,1.166 -21.845997,6.646996 -21.845997,17.183994c0,0.386002 0.311996,0.695999 0.696999,0.695999l51.504002,0c0.384995,0 0.697006,-0.310989 0.697006,-0.695999c-0.001007,-10.535999 -10.618011,-16.017994 -21.846008,-17.182995z" fill="#000000"/>
   </g>
  </g>
 </g>
</svg>