<?xml version="1.0" encoding="utf-8"?>
<!-- Generator: Adobe Illustrator 16.0.0, SVG Export Plug-In . SVG Version: 6.00 Build 0)  -->
<!DOCTYPE svg PUBLIC "-//W3C//DTD SVG 1.1//EN" "http://www.w3.org/Graphics/SVG/1.1/DTD/svg11.dtd">
<svg version="1.1" id="Layer_1" xmlns="http://www.w3.org/2000/svg" xmlns:xlink="http://www.w3.org/1999/xlink" x="0px" y="0px"
	 width="371.34px" height="371.34px" viewBox="0 0 371.34 371.34" enable-background="new 0 0 371.34 371.34" xml:space="preserve">
<g>
	<path fill-rule="evenodd" clip-rule="evenodd" fill="#526B43" d="M253.391,164.525c2.312,3.697,4.643,7.195,6.719,10.838
		c1.181,2.072,2.162,4.316,2.84,6.6c0.912,3.073-0.452,4.929-3.618,4.521c-4.976-0.64-9.907-1.698-14.81-2.794
		c-6.439-1.441-12.839-3.062-19.24-4.666c-2.32-0.582-4.266-0.227-6.235,1.26c-2.63,1.984-5.501,3.646-8.262,5.459
		c-0.649,0.427-1.269,0.904-2.08,1.486c0.821,1.157,1.556,2.266,2.364,3.313c2.09,2.707,4.263,5.352,6.295,8.1
		c0.72,0.973,1.25,2.133,1.658,3.28c0.8,2.248-0.022,3.488-2.479,3.502c-2.398,0.014-4.805-0.229-7.197-0.474
		c-2.098-0.214-4.18-0.587-6.301-0.894c1.201,9.103,0.113,17.897-1.829,26.604c-1.44,6.451-3.469,7.695-9.745,5.649
		c-7.605-2.48-14.702-6.128-20.996-11.079c-2.195-1.728-3.794-4.238-5.572-6.466c-2.088-2.617-4.016-5.365-6.155-7.939
		c-0.43-0.517-1.552-0.816-2.257-0.686c-3.12,0.578-6.278,1.122-9.287,2.097c-7.973,2.583-15.85,5.464-23.814,8.072
		c-6.792,2.226-13.862,2.296-20.935,2.5c-11.151,0.321-22.295,0.927-33.442,1.423c-2.385,0.106-4.767,0.264-7.16,0.398
		c1.136,1.9,2.187,3.657,3.238,5.415c-0.166,0.124-0.332,0.248-0.498,0.373c-0.349-0.223-0.749-0.395-1.041-0.677
		c-3.256-3.151-7.313-4.26-11.664-4.381c-4.869-0.135-9.75,0.087-14.612-0.127c-2.941-0.129-5.889-0.644-8.779-1.25
		c-3.041-0.638-4.458-2.82-5.421-5.753c-2.694-8.202,0.326-14.687,6.006-20.148c5.531-5.318,11.393-10.309,17.298-15.216
		c20.365-16.923,43.198-29.349,68.471-37.302c5.92-1.863,11.766-3.968,17.638-5.985c4.634-1.592,8.534-4.083,11.063-8.5
		c4.119-7.193,8.412-14.288,12.574-21.457c4.182-7.202,8.638-14.198,15.036-19.684c1.86-1.595,3.91-3.003,6.004-4.283
		c2.757-1.685,5.626-1.679,8.042,0.614c1.893,1.796,3.665,3.779,5.185,5.897c5.063,7.057,10.061,14.165,14.929,21.357
		c1.556,2.298,2.852,4.834,3.873,7.417c1.35,3.412,0.395,5.229-2.943,6.671c-3.284,1.417-6.574,2.821-9.834,4.294
		c-0.656,0.296-1.188,0.872-2.059,1.532c2.414,1.059,4.545,0.725,6.613,0.61c10.693-0.598,21.407-1.007,32.067-1.988
		c8.063-0.743,16.131-1.886,24.063-3.505c8.913-1.818,17.688-4.323,26.5-6.62c7.291-1.901,12.899-6.364,17.593-12.063
		c5.596-6.794,10.98-13.766,16.704-20.449c3.837-4.48,8.398-8.258,13.417-11.401c1.498-0.939,3.158-1.688,4.837-2.251
		c2.232-0.75,3.927,0.018,5.111,2.056c2.03,3.493,2.136,7.399,1.502,11.127c-1.075,6.323-2.687,12.556-4.12,18.816
		c-0.901,3.936-3.615,6.899-5.586,10.269c-1.196,2.045-2.3,4.262-2.844,6.544c-0.734,3.087,0.597,5.946,2.59,8.22
		c3.876,4.421,7.823,8.805,12.043,12.892c5.803,5.621,10.569,11.79,11.984,19.944c0.413,2.379,0.418,4.9,0.155,7.305
		c-0.262,2.393-1.89,3.487-4.331,3.611c-3.658,0.187-7.135-0.652-10.47-2.031c-7.913-3.273-15.812-6.585-23.677-9.975
		c-3.851-1.66-7.732-3.312-11.384-5.353c-5.283-2.953-10.895-3.821-16.737-3.128c-12.381,1.468-24.372,4.776-36.352,8.098
		C253.832,164.224,253.652,164.378,253.391,164.525z"/>
</g>
</svg>
