<?xml version="1.0" encoding="utf-8"?>
<!-- Generator: Adobe Illustrator 16.0.0, SVG Export Plug-In . SVG Version: 6.00 Build 0)  -->
<!DOCTYPE svg PUBLIC "-//W3C//DTD SVG 1.1//EN" "http://www.w3.org/Graphics/SVG/1.1/DTD/svg11.dtd">
<svg version="1.1" id="Layer_1" xmlns="http://www.w3.org/2000/svg" xmlns:xlink="http://www.w3.org/1999/xlink" x="0px" y="0px"
	 width="371.34px" height="371.34px" viewBox="0 0 371.34 371.34" enable-background="new 0 0 371.34 371.34" xml:space="preserve">
<g>
	<path fill-rule="evenodd" clip-rule="evenodd" fill="#18A090" d="M263.195,269.533c-1.258,0.397-2.523,0.773-3.773,1.195
		c-10.246,3.457-20.475,6.967-30.746,10.35c-2.182,0.718-4.496,1.192-6.783,1.392c-2.617,0.229-4.104-1.782-3.594-4.418
		c0.727-3.767,2.803-6.897,5.408-9.462c5.479-5.393,11.1-10.668,16.965-15.635c11.271-9.546,23.584-17.687,36.07-25.524
		c3.729-2.34,5.268-5.236,4.953-9.411c-0.023-0.322,0.016-0.649-0.01-0.972c-0.105-1.354,0.211-3.019-0.469-3.963
		c-0.568-0.787-2.311-0.723-3.529-1.044c-7.719-2.032-15.025-5.029-21.758-9.354c-0.762-0.489-1.504-1.01-2.227-1.554
		c-2.555-1.924-4.932-1.79-7.865-0.338c-5.412,2.679-11.092,4.82-16.691,7.11c-1.158,0.474-1.803,1.104-2.291,2.301
		c-0.773,1.891-1.805,3.706-2.946,5.407c-1.685,2.514-4.222,2.103-6.662,1.51c-2.14-0.521-2.649-2.236-2.745-4.171
		c-0.008-0.183-0.102-0.361-0.063-0.235c-3.912,0-7.7,0.039-11.487-0.008c-8.278-0.103-16.558-0.216-24.835-0.414
		c-1.243-0.03-1.898,0.147-2.17,1.478c-0.437,2.142-1.893,3.077-4.041,3.543c-4.225,0.916-7.518-0.378-9.612-3.981
		c-1.289-2.218-3.092-2.641-5.284-3.104c-8.985-1.9-17.716-4.574-25.484-9.673c-1.921-1.261-3.739-0.886-5.498-0.096
		c-2.583,1.16-5.154,2.415-7.538,3.932c-5.841,3.716-12.27,5.614-19.027,6.637c-0.38,0.058-0.767,0.123-1.128,0.249
		c-1.841,0.643-4.42,0.252-4.838,3.01c-0.503,3.316-0.737,6.733,2.348,9.056c6.87,5.172,13.799,10.265,20.764,15.309
		c10.685,7.736,20.5,16.447,29.189,26.363c4.234,4.832,7.462,10.372,9.59,16.488c0.507,1.459,0.888,3.244-0.623,4.022
		c-1.018,0.525-2.912,0.406-3.9-0.228c-10.745-6.888-23.076-10.25-34.465-15.687c-0.61-0.29-1.259-0.499-2.14-0.404
		c0.365,0.488,0.671,1.038,1.103,1.458c5.012,4.869,9.935,9.838,15.124,14.513c2.027,1.827,4.654,2.991,7.021,4.436
		c1.212,0.74,2.563,1.3,3.638,2.196c0.652,0.544,1.384,1.712,1.204,2.354c-0.222,0.792-1.314,1.826-2.101,1.89
		c-3.399,0.272-6.841,0.483-10.235,0.253c-10.006-0.68-17.996-6.229-26.238-11.169c-13.425-8.047-23.195-19.471-30.59-33.052
		c-2.527-4.641-4.677-9.49-6.928-14.279c-4.463-9.496-4.595-19.277-1.948-29.279c3.109-11.749,7.958-22.622,15.879-31.945
		c1.217-1.432,2.834-2.732,4.535-3.504c4.385-1.992,8.899-3.713,13.414-5.404c1.048-0.393,1.505-0.819,1.397-1.899
		c-0.051-0.513-0.034-1.037-0.004-1.553c0.198-3.354-0.861-6.887,1.989-10.169c-1.359-0.061-2.163-0.126-2.967-0.127
		c-10.75-0.01-21.502-0.155-32.249,0.029c-8.943,0.152-11.884,3.298-14.251,9.799c-4.452,12.225-8.801,24.487-13.237,36.717
		c-0.79,2.176-1.741,4.297-2.716,6.397c-0.696,1.501-1.807,2.651-3.642,2.2c-1.676-0.412-1.966-1.971-2.067-3.368
		c-0.223-3.094-0.487-6.208-0.354-9.299c0.34-7.925,0.417-15.892,2.645-23.613c3.03-10.507,8.501-19.62,15.806-27.676
		c3.888-4.288,9.013-6.272,14.544-6.973c10.686-1.355,21.445-1.294,32.149-0.344c4.974,0.442,9.837,2.011,14.797,2.765
		c2.177,0.331,4.514,0.141,6.696-0.26c1.696-0.312,2.004-1.464,0.753-2.664c-2.178-2.088-4.369-4.345-6.969-5.777
		c-8.042-4.429-16.494-7.982-25.623-9.457c-2.477-0.4-5.178-0.205-7.651,0.312c-6.6,1.38-12.536,4.293-17.768,8.599
		c-0.944,0.777-1.932,1.593-3.041,2.049c-0.801,0.329-2.021,0.409-2.708,0.007c-0.542-0.317-0.806-1.557-0.742-2.35
		c0.079-0.985,0.529-1.979,0.981-2.889c3.835-7.718,10.093-12.337,18.353-14.56c8.783-2.363,17.28-1.087,25.669,1.7
		c4.336,1.441,8.583,3.154,12.868,4.747c5.927,2.202,10.75,6.096,15.554,10.048c1.544,1.271,3.041,2.883,5.846,2.46
		c-0.973-1.238-1.653-2.406-2.608-3.27c-5.56-5.032-11.051-10.154-16.829-14.927c-4.968-4.104-11.164-4.777-17.353-5.048
		c-5.438-0.238-10.854-0.091-16.15,1.391c-0.186,0.051-0.384,0.095-0.574,0.087c-1.408-0.059-3.147,0.649-3.811-1.332
		c-0.605-1.805,0.769-2.716,1.955-3.589c8.029-5.907,16.84-6.887,26.482-4.94c10.679,2.157,19.399,7.863,27.991,13.978
		c4.858,3.458,9.574,7.112,13.016,12.097c1.257,1.82,3.063,1.599,4.731,1.278c16.986-3.263,34.155-3.67,51.368-3.36
		c7.132,0.127,14.069,1.608,20.999,3.164c2.313,0.519,4.723,0.663,7.1,0.833c2.637,0.188,4.57-1.245,6.127-3.168
		c1.422-1.757,2.613-3.7,4.039-5.452c7.268-8.934,16.688-14.689,27.717-17.455c10.283-2.578,20.611-2.375,30.475,2.259
		c1.219,0.573,2.465,1.195,3.479,2.053c0.584,0.493,1.137,1.625,0.957,2.257c-0.209,0.737-1.191,1.706-1.91,1.769
		c-3.143,0.276-6.311,0.354-9.467,0.331c-6.02-0.042-12.041-0.327-18.057-0.229c-1.625,0.026-3.51,0.708-4.801,1.704
		c-4.604,3.549-9.064,7.291-13.453,11.104c-2.869,2.491-5.52,5.231-8.27,7.86c0.084,0.179,0.168,0.357,0.252,0.536
		c1.031-0.297,2.121-0.465,3.084-0.911c8.309-3.855,16.637-7.672,24.873-11.675c9.607-4.667,19.734-5.521,30.207-4.881
		c7.953,0.486,13.637,4.595,18.438,10.44c0.365,0.444,0.725,0.936,0.924,1.467c0.811,2.162-0.367,3.694-2.629,3.271
		c-1.371-0.257-2.727-0.786-3.994-1.389c-12.584-5.98-25.227-5.782-37.785-0.127c-6.525,2.938-12.852,6.321-19.256,9.529
		c-0.666,0.333-1.246,0.843-2.006,1.367c1.959,1.93,3.836,3.053,6.525,2.101c6.879-2.437,14.09-3.041,21.295-3.578
		c4.574-0.341,9.168-0.802,13.744-0.709c11.127,0.225,21.559,2.677,30.477,9.964c6.158,5.032,9.748,11.579,11.449,19.065
		c1.967,8.65,3.367,17.435,4.822,26.192c0.924,5.567,1.018,11.196,0.006,16.789c-0.193,1.067-0.35,2.243-0.916,3.111
		c-0.49,0.749-1.566,1.591-2.336,1.546c-0.742-0.043-1.818-1.049-2.055-1.84c-0.807-2.705-1.498-5.474-1.891-8.268
		c-1.035-7.366-3.531-14.21-6.771-20.864c-3.443-7.069-6.775-14.199-9.912-21.408c-1.33-3.056-3.539-4.566-6.574-4.977
		c-5.494-0.745-11.002-1.55-16.531-1.857c-7.299-0.406-14.623-0.362-21.938-0.491c-0.553-0.009-1.107,0.14-1.588,0.206
		c-0.088,0.306-0.189,0.468-0.146,0.538c2.021,3.228,2.34,6.855,2.762,10.525c0.143,1.242,1.301,2.676,2.4,3.434
		c2.273,1.566,4.893,2.623,7.234,4.102c3.221,2.032,6.357,4.203,9.455,6.418c5.457,3.902,8.242,9.595,10.508,15.687
		c3.16,8.502,5.248,17.181,4.432,26.304c-0.857,9.602-3.508,18.741-8.049,27.262c-6.439,12.08-14.258,23.201-24.883,31.942
		c-8.867,7.295-19.084,12.323-30.379,14.7c-3,0.632-6.297,0.192-9.404-0.186c-1.043-0.127-2.396-1.444-2.721-2.492
		c-0.223-0.726,0.902-2.114,1.736-2.856c1.039-0.927,2.348-1.609,3.633-2.195c7.496-3.417,13.828-8.299,18.92-14.789
		c0.824-1.05,1.76-2.012,2.643-3.015C263.334,269.783,263.266,269.658,263.195,269.533z"/>
</g>
</svg>
