<?xml version="1.0" encoding="utf-8"?>
<!-- Generator: Adobe Illustrator 16.0.0, SVG Export Plug-In . SVG Version: 6.00 Build 0)  -->
<!DOCTYPE svg PUBLIC "-//W3C//DTD SVG 1.1//EN" "http://www.w3.org/Graphics/SVG/1.1/DTD/svg11.dtd">
<svg version="1.1" id="Layer_1" xmlns="http://www.w3.org/2000/svg" xmlns:xlink="http://www.w3.org/1999/xlink" x="0px" y="0px"
	 width="1190.55px" height="992.13px" viewBox="0 0 1190.55 992.13" enable-background="new 0 0 1190.55 992.13"
	 xml:space="preserve">
<path fill="#010101" d="M553.36,568.471c4.127-1.429,8.413-2.54,12.699-3.81c0.794,0.793,1.746,2.539,3.017,2.857
	c3.333,0.952,3.016,3.333,3.333,5.873c1.588,10.001-1.587,19.049-6.825,27.304c-3.017,4.762-5.239,10-7.62,15.08
	c-1.429,3.175-2.223,6.667-2.698,10.159c-0.635,3.175-1.111,6.826-0.477,9.842c1.27,4.604,3.81,9.049,5.556,13.335
	c2.063,4.762,6.191,6.35,10.636,7.619c5.557,1.587,11.429,3.333,16.509,5.873c4.285,2.063,4.445,4.604,3.334,9.366
	c-1.111,3.969-1.906,8.096-2.857,12.223c-0.635,4.127-3.016,6.35-7.145,7.778c-5.555,2.223-11.111,5.238-16.349,8.255
	c-4.763,2.857-4.921,11.588-0.953,14.922c6.668,5.714,18.574,4.762,23.97-2.223c4.285-5.715,11.746-9.684,12.223-18.414
	c0-0.794,2.857-2.063,3.811-1.905c2.062,0.159,2.062,2.064,1.428,3.969c-1.27,4.286-2.539,8.096-3.969,12.224
	c-2.697,8.254-1.27,9.524,4.764,15.874c1.746,1.429,3.492,3.492,5.396,3.65c6.191,1.271,9.523-1.111,12.857-6.984
	c3.492-5.715,3.811-11.111-0.158-16.668c-1.588-2.063-3.016-4.127-3.492-6.508c-0.793-4.128-0.953-8.572-0.953-12.858
	c0.16-1.904,2.064-3.175,4.127-3.016c5.557,0.635,11.113,1.904,15.717,5.238c4.443,3.333,10.318,3.65,14.445,0
	c2.857-2.54,4.443-6.35,6.666-9.684c0.16-0.476,0-2.063-0.793-2.857c-1.904-1.746-4.285-3.969-6.826-5.238
	c-6.031-3.175-12.381-2.381-18.256,0.477c-2.062,0.793-4.443,1.904-5.555-0.477c-0.477-1.429,0.316-4.286,1.904-5.397
	c3.334-3.175,7.303-5.556,10.953-8.413c3.176-2.857,6.826-5.396,9.049-8.89c1.904-2.381-0.953-9.048-3.176-10.636
	c-3.65-2.856-10.635-3.174-13.969-0.952c-5.557,3.334-8.414,8.89-11.906,13.97c-1.111,2.063-2.697,4.127-4.443,4.444
	c-4.445,0.794-9.367,2.063-12.699,0.477c-6.984-3.334-13.811-7.778-19.049-13.176c-5.875-5.715-3.969-13.651,0-19.525
	c5.396-7.937,11.904-15.08,17.777-22.541c3.176-3.81,6.51-7.461,8.891-11.747c4.762-7.937,9.523-16.191,13.811-24.604
	c1.588-3.016,2.062-6.667,2.539-10.318c0.477-2.54,0.16-5.238,0.16-7.937c0.146-11.675-5.893-20.921-15.869-25.422
	c3.021-2.453,5.919-5.155,9.105-7.279c7.303-5.079,14.605-10,21.906-15.08c3.176-2.063,6.35-3.81,9.367-6.032
	c3.332-2.698,6.824-5.715,10.316-8.413c3.176-2.223,6.51-3.492,9.684-5.715c11.271-8.413,22.701-17.144,32.383-26.986
	c9.049-9.206,18.891-15.873,30.955-19.842c1.111-0.477,3.176-0.794,3.492-0.317c0.793,0.794,1.27,2.54,0.953,3.81
	c-0.795,4.127-1.906,8.413-3.334,12.382c-1.43,3.492-2.857,6.667-4.604,10.159c-2.223,3.969-4.445,7.619-6.668,11.747
	c-1.904,2.857-3.332,5.873-4.604,8.89c-1.27,3.016-2.539,6.19-3.016,9.048c-0.951,3.492-1.428,6.826-3.492,10.001
	c-1.588,1.746-2.062,5.079-1.588,7.302c0.635,3.492,2.064,6.826,3.492,10.159c2.857,5.873,7.303,7.144,13.018,4.445
	c2.539-1.111,4.762-2.382,7.143-3.651c7.303-3.334,14.605-6.667,21.906-10.001c2.064-0.952,3.969-1.904,6.033-2.857
	c5.873-2.381,11.904-4.444,17.619-7.302c6.668-3.651,18.825-9.093,26.604-9.728c9.602-1.65,13.115-3.972,18.082,0.247
	c2.839,2.504,3.869,5.019,3.542,8.57c-0.261,3.203,0.004,5.932-0.299,8.982c-0.39,2.744-1.278,5.463-1.973,8.296
	c-1.025,3.416-2.552,6.808-2.923,10.206c-1.134,6.578,4.343,12.631,10.988,13.417c4.055,0.353,6.288-1.093,6.055-5.479
	c-0.336-5.345-1.021-10.757-1.814-15.972c-0.745-6.221,0.576-11.532,3.011-16.989c0.111-0.195,0.22-0.392,0.373-0.435
	c3.892-1.413,8.172-2.605,12.301-3.756c0.765-0.214,1.853,0.142,2.677,0.735c2.194,1.367,6.325,13.233,5.741,15.87
	c-1.261,6.117,0.671,10.688,6.019,13.317c2.651,1.238,5.439,1.779,8.228,2.32c4.011,0.202,8.585-5.853,6.756-9.462
	c-2.579-5.708-5.71-10.438-10.635-14.506c-4.184-3.777-7.73-8.227-11.455-12.132c1.544-2.737,2.195-5.721,3.911-7.845
	c1.12-1.302,3.48-2.29,5.291-2.3c6.449,0.674,13.181,1.764,19.717,2.746c8.43,1.275,17.222-2.657,18.861-10.367
	c1.127-5.421-1.053-9.1-6.32-10.267c-7.183-2.118-13.307,0.742-18.869,4.436c-5.894,4.278-12.81,4.888-19.513,6.261
	c-2.489,0.529-5.344,0.335-6.435-2.985c-1.934-4.571-1.47-8.82,1.205-11.048c6.514-5.604,12.897-11.668,19.453-17.122
	c1.58-1.428,2.767-3.077,3.802-4.685c1.833-3.478-0.165-4.733-3.752-6.369c-14.391-6.701-24.058,17.745-25.312,19.743
	c-1.189,1.649-3.55,2.638-5.453,3.498c-7.024,3.77-14.524,7.013-21.421,11.242c-4.993,3.37-9.868,5.388-15.945,4.279
	c-4.662-0.063-8.672,0.757-13.829,2.357c-5.238,0.635-11.111,1.587-16.508,1.904c-3.811,0.477-7.621,2.063-11.43,3.175
	c-2.381,0.317-4.922,0.159-8.096,0.477c2.381-6.984,4.285-12.858,6.031-18.414c1.588-4.921,3.176-9.366,4.764-13.969
	c2.062-7.778,3.967-15.398,5.713-23.018c0.795-2.381,0.795-5.397-0.316-7.778c-0.953-3.651-2.857-7.144-4.762-10.795
	c-1.271-2.856-2.541-5.873-4.604-8.254c-2.541-3.334-3.018-5.397-0.477-8.73c1.428-1.588,3.016-3.017,4.127-4.604
	c3.811-6.668,10.16-7.938,16.668-8.572c4.604-0.317,8.572-1.746,12.223-3.81c3.969-2.54,7.779-5.397,11.43-8.255
	c0.953-0.635,1.588-0.952,2.223-1.746c3.334-5.873,6.508-11.747,9.842-17.462c1.111-1.904,3.016-3.492,4.445-5.079
	c3.967-4.445,8.889-8.413,12.381-13.176c2.857-3.333,3.811-8.255,6.826-11.588c3.016-3.334,4.604-7.461,5.873-11.43
	c3.176-13.334,6.508-26.51,5.557-40.161c-0.477-5.397-1.588-12.699-6.668-16.033c-4.445-3.175-10.635-4.604-16.191-5.238
	c-2.223-0.317-3.969-0.476-6.031-0.635c-2.064,0.317-4.129,0.477-6.033,0.635c-7.619,1.271-15.08,2.857-22.383,4.445
	c-5.555,1.11-10.793,3.333-16.508,3.65c-3.652,0.159-7.938,0-11.748,1.429c-5.555,2.063-12.381,2.223-16.191,5.557
	c-5.238,4.127-10.953,4.444-16.508,6.825c-0.318,0-0.637,0.317-0.795,0.635c-5.715,6.032-12.541,11.112-17.938,17.62
	c-4.285,5.239-4.604,9.843-3.492,15.557c0.793,3.651,1.588,7.778,2.064,11.589c-0.477,1.429-1.271,3.65-2.541,4.921
	c-3.016,3.175-6.191,6.508-9.684,9.365c-1.109,0.952-3.174,2.063-4.443,1.905c-4.604-0.159-9.049-1.111-13.494-2.063
	c-0.793,0-1.746-0.636-2.381-1.111c-3.809-3.334-7.301-6.509-11.588-8.572c-1.746-0.794-2.381-2.381-3.334-3.81
	c-4.443-6.191-10.635-9.207-17.461-8.413c-11.588,0.952-22.064,5.873-32.225,11.429c-4.023,2.414-5.359,2.787-11.381,6.778
	c-0.296,0.196-1.953,1.317-2.588,1.477c-3.176,1.746-6.191,3.333-9.684,4.604c-1.588,0.635-3.65,0.635-5.873,0.794
	c-0.318-2.699-0.793-4.445-0.635-6.35c0.635-6.032,1.428-11.906,1.904-17.779c0.158-5.397,0.795-10.794-1.27-15.557
	c-2.699-5.556-2.064-10.794-0.158-16.509c2.223-7.778,3.332-15.874,5.078-23.652c0.318-2.063,0.637-4.604,1.906-6.191
	c1.588-1.746,22.541-17.62,12.223-29.685c-2.539-3.016-4.285-4.604-7.143-1.904c-1.271,1.429-2.541,3.016-3.492,4.921
	c-3.494,7.778-7.621,15.557-11.271,23.335c-1.428,3.175-5.396,4.762-10.318,4.127c-3.492-0.159-4.445-2.857-4.604-5.397
	c-0.477-6.825-1.746-13.651,0.793-20.478c2.064-6.35,3.176-13.017-0.793-19.366c-2.539-4.762-6.667-5.873-11.587-3.333
	c-6.985,3.65-8.414,13.175-4.922,20.953c2.699,6.032,5.557,12.224,7.938,18.256c0.477,1.746,0.159,4.285-0.794,5.714
	c-1.587,2.223-4.286,3.651-6.508,5.874c-4.763-2.54-10.001-4.763-14.763-7.778c-5.239-3.651-10.636-5.397-16.827-6.35
	c-3.969-0.794-8.572,5.238-7.302,9.048c1.27,2.54,2.54,5.08,4.444,7.302c3.969,4.445,8.89,5.08,14.445,2.223
	c2.382-1.27,14.922-0.477,16.827,1.271c0.793,0.635,1.429,1.587,1.429,2.381c0,4.286,0,8.73-0.317,12.857
	c0,0.159-0.159,0.317-0.318,0.477c-4.604,3.81-9.365,6.509-15.557,7.461c-5.238,0.635-10.635,1.429-15.873,2.54
	c-4.286,0.952-5.08,3.492-3.651,7.302c2.54,6.191,9.842,9.842,15.874,6.984c3.175-1.27,6.032-3.65,9.048-5.556
	c2.54-1.429,4.921-3.016,7.461-4.127c2.857-1.111,5.556-1.588,8.572-2.699c3.333-1.27,6.032-0.952,9.207,1.111
	c5.397,3.651,6.667,11.112,4.127,17.62c-3.652,8.096-7.779,16.033-9.366,25.081c-1.271,7.144-3.334,14.287-6.191,21.271
	c-2.063,5.556-2.063,12.223-1.905,18.255c0.477,4.604,2.54,8.572,7.303,11.43c3.65,2.063,6.826,3.81,10.953,3.016
	c7.779-1.746,14.922-5.238,21.43-9.842c9.049-6.19,17.779-12.857,26.352-19.524c4.604-3.651,9.525-6.191,14.764-7.62
	c2.857-0.952,10.635,1.271,12.064,3.651c1.27,2.063,1.586,4.444,1.27,6.508c-0.16,2.699-1.111,5.397-2.223,8.096
	c-0.793,1.905-1.904,4.128-3.334,5.715c-3.65,4.286-7.777,8.255-11.27,12.382c-2.064,2.063-3.969,3.969-5.715,6.191
	c-4.445,6.825-10.637,11.746-17.145,16.032c-7.938,5.08-16.35,9.049-24.445,13.493c-9.049,4.763-18.256,9.049-26.987,14.287
	c-4.179,2.563-8.31,5.18-12.425,7.821c-5.133-7.855-13.644-12.207-23.832-11.949c-2.857,0.159-5.556-0.317-8.096,0.159
	c-3.333,0.794-6.984,1.27-10.159,3.016c-8.096,4.604-16.191,9.366-24.129,14.446c-4.127,2.698-7.619,6.19-11.271,9.365
	c-7.144,6.19-14.286,12.857-22.382,18.414c-5.715,4.127-13.493,6.35-19.367,0.793c-5.556-5.238-10.159-11.905-13.492-18.572
	c-1.905-3.333-0.794-8.73,0-12.857c0.158-1.746,2.222-3.811,3.968-4.921c5.239-3.493,10.478-6.351,13.97-11.906
	c2.063-3.333,1.27-10.477-1.429-14.128c-1.746-2.223-8.255-4.762-10.795-2.857c-3.492,2.382-5.873,6.032-8.73,9.366
	c-3.016,3.81-4.921,7.937-8.096,11.429c-1.111,1.271-3.81,2.382-5.238,1.905c-2.54-1.111-1.429-3.81-0.635-5.397
	c2.698-6.19,3.333-12.382,0-18.414c-1.429-2.698-3.492-4.604-5.715-6.984c-0.477-0.635-2.381-0.952-2.857-0.476
	c-3.175,2.063-6.984,3.968-9.207,6.984c-3.81,4.127-3.333,9.842,0.159,14.128c3.492,4.762,4.921,10.159,5.556,15.715
	c0.477,2.382-0.477,3.969-2.698,3.969c-4.445,0.159-8.89,0.159-12.699-0.317c-2.382-0.317-4.604-1.746-6.826-3.175
	c-5.556-3.81-11.271-3.334-16.826,0.159c-5.397,3.333-7.62,6.984-6.509,13.175c0.317,1.746,2.381,3.81,4.127,5.238
	c6.35,5.874,7.62,7.302,15.874,4.286c3.969-1.27,8.255-2.698,11.906-4.444c2.063-0.794,3.81-0.794,4.127,1.27
	c0.317,1.27-1.111,3.969-1.587,4.127c-8.731,0.636-12.382,8.255-18.256,12.699c-6.825,5.557-7.302,17.62-1.27,24.129
	c3.175,3.969,11.905,3.175,14.604-1.429c3.175-5.397,5.874-10.953,7.778-16.826c1.588-3.969,3.811-6.35,7.938-7.144
	c3.81-1.111,8.096-2.063,11.747-3.175c4.762-1.429,7.302-1.27,9.524,3.016c3.016,5.239,4.604,10.953,6.508,16.351
	c1.429,4.604,3.017,8.572,7.778,10.318c4.445,1.905,8.89,4.127,13.651,5.238c3.017,0.635,6.509-0.158,9.684-0.794
	c3.334-0.635,6.984-1.429,10.159-2.857c5.08-2.381,10.16-4.762,14.922-7.937c6.953-4.546,14.246-7.729,22.348-8.054
	c-2.236,2.089-4.594,4.125-6.886,6.308c-3.969,6.508-9.366,12.54-13.335,18.89c-6.984,10.953-12.223,22.7-17.303,34.447
	c-3.333,7.937-6.19,15.874-8.889,23.811c-1.747,6.826-3.334,13.335-4.445,20.478c-1.746,13.652-0.635,26.986,1.588,40.32
	c2.222,12.858,5.556,25.558,8.254,38.415c1.111,5.397,2.063,10.953,2.857,16.351c2.54,15.557,9.524,30.161,7.938,46.353
	c-0.159,3.81,0,7.302-1.271,10.953c-1.111,3.016-1.746,6.35-1.746,9.365c0,6.668-0.158,13.176-0.158,19.843
	c0,9.049-2.063,18.414-5.397,26.827c-4.445,13.176-10.001,25.558-16.191,37.78c-6.984,13.97-18.414,24.605-30.796,33.019
	c-6.508,4.444-13.969,7.937-21.589,9.683c-7.302,1.747-14.921,1.588-22.224,1.271c-7.937-0.635-15.715-1.271-22.858-3.81
	c-8.73-3.175-16.668-7.62-23.176-15.081c-8.414-9.842-13.335-20.001-11.112-33.018c0.635-2.381,0.635-4.127-2.381-6.032
	c-2.381,4.762-4.921,9.365-7.303,13.651c-0.158,0.477,0,1.271,0,1.746c1.747,9.684,3.969,18.891,8.572,27.304
	c3.017,5.715,7.144,10.318,11.112,15.557c2.381,3.492,4.286,7.302,9.365,8.255c0.794,0.158,1.746,1.746,2.699,2.698
	c1.11,1.111,2.063,2.381,3.175,3.175c3.968,1.905,7.937,3.969,12.381,5.397c8.414,2.54,16.985,4.604,25.717,6.35
	c4.286,0.635,8.89,0.952,13.175,0.476c7.303-0.793,14.445-2.222,21.589-3.81c3.175-0.794,5.715-3.333,8.731-3.492
	c11.588-1.905,20.318-9.365,30.001-15.239c1.271-0.952,3.334-1.429,5.397-2.381c0.477-0.952,1.429-3.017,3.017-4.445
	c4.603-4.285,9.842-7.937,14.286-12.699c7.938-7.937,14.445-16.826,19.525-26.985c3.333-6.984,7.937-13.493,10.953-20.637
	c3.016-6.667,3.969-13.969,6.667-20.478c3.81-10,4.286-20.636,5.397-31.113c0.793-5.556-0.953-11.588,2.063-17.144
	c0.158-0.635,0-1.588,0-2.223c0-13.175,0-26.51,0-39.685c-0.317-2.064-0.635-4.128-0.952-6.191
	c-0.636-4.286-1.588-8.89-1.588-13.176c-0.158-4.762,1.27-9.683,0.952-14.604C512.786,657.524,517.72,580.274,553.36,568.471z"/>
</svg>
