<?xml version="1.0" encoding="iso-8859-1"?>
<!-- Generator: Adobe Illustrator 16.0.0, SVG Export Plug-In . SVG Version: 6.00 Build 0)  -->
<!DOCTYPE svg PUBLIC "-//W3C//DTD SVG 1.1//EN" "http://www.w3.org/Graphics/SVG/1.1/DTD/svg11.dtd">
<svg version="1.1" id="Capa_1" xmlns="http://www.w3.org/2000/svg" xmlns:xlink="http://www.w3.org/1999/xlink" x="0px" y="0px"
	 width="568.932px" height="568.932px" viewBox="0 0 568.932 568.932" style="enable-background:new 0 0 568.932 568.932;"
	 xml:space="preserve">
<g>
	<g>
		<path d="M562.688,248.756c-12.93-10.637-28.046-13.59-43.231-16.41c-24.109-4.476-48.39-5.161-72.698-3.382
			c-16.813,1.232-33.627,2.631-50.396,4.476c-2.265,0.241-4.525,0.485-6.789,0.738c-27.177,3.02-54.285,6.745-81.318,11.069
			c-1.049,0.167-2.098,0.347-3.146,0.518c-0.298,0.045-0.6,0.086-0.897,0.13c-6.557,0.951-11.31-1.558-15.52-6.989
			c-8.104-10.461-16.157-21.008-24.771-30.922c-4.916-5.663-10.849-10.212-16.414-15.128c-1.232-1.089-2.811-1.734-4.296-2.395
			c-2.852-1.273-5.255-1.661-7.246-1.224c-2.358,0.277-4.537,1.673-5.904,4.321c-0.906,1.75-1.22,3.921-0.967,5.998
			c-0.702,3.954-0.824,7.87-0.689,11.771c-0.049,8.633,0.661,17.229,0.343,25.985c-0.334,9.351-2.265,18.511-9.042,24.488
			c-0.082,0.073-0.151,0.155-0.229,0.232c-17.666,3.847-35.275,8.013-52.832,12.452c-2.754-0.449-5.027-1.995-7.381-4.5
			c-4.158-4.431-8.825-8.294-13.497-12.036c-3.317-2.656-5.716-1.089-6.365,3.521c-0.322,2.301-0.449,6.247-1.383,6.54
			c-0.849,0.27-1.673,0.677-2.489,1.126c-0.339,0.09-0.673,0.18-1.012,0.27c-2.571,0.681-5.141,1.367-7.711,2.048
			c-0.11-0.041-0.216-0.065-0.331-0.114c-7.613-3.183-15.23-6.369-22.783-9.739c-3.443-1.538-6.667-3.815-10.126-5.198
			c-1.453-0.71-2.921-1.383-4.406-2.003c-1.583-1.081-2.762-2.477-3.652-4.133c-1.681-7.475-3.366-14.949-5.047-22.424
			c-1.689-9.16-3.403-18.315-5.234-27.438c-3.97-19.772-8.303-39.482-16.41-57.695c-0.22-0.698-0.437-1.396-0.661-2.089
			c-0.481-1.481-1.212-2.795-2.122-3.864c-3.676-7.528-7.764-14.819-11.865-22.064c-1.036-1.828-3.586-2.554-5.438-3.787
			c-0.449,2.269-1.424,4.594-1.249,6.801c0.571,7.067,2.183,14.076,2.264,21.126c0.139,12.244-0.62,24.496-0.901,36.749
			c-0.343,14.88-0.408,29.776,2.036,44.443c0.298,3.962,0.645,7.919,1.041,11.877c-0.151,1.815-0.49,3.533-1.061,5.161
			c-1.052,1.75-2.219,3.407-3.525,4.933c-1.669,1.946-3.439,3.725-5.288,5.386c-9.111,6.075-17.401,13.701-27.842,17.087
			c-1.722,0.563-4.358,3.052-4.203,4.268c0.261,2.064,2.085,4.407,3.807,5.61c10.021,7.013,21.396,7.062,32.595,7.054
			c7.172-0.004,14.333-1.559,21.522-1.938c4.488-0.237,9.155-0.261,13.468,0.914c2.824,0.767,5.667,3.358,7.626,5.968
			c10.983,14.664,21.869,29.36,36.565,39.646c2.036,1.424,3.439,4.039,5.067,6.168c0.685,0.898,1.003,2.428,1.828,2.881
			c3.305,1.824,4.578,4.023,3.358,8.475c-0.849,3.105,2.546,5.811,6.797,5.609c4.663-0.221,9.298-1.023,13.958-1.371
			c1.783-0.131,3.798-0.215,5.374,0.551c16.862,8.242,34.203,14.562,52.093,18.812c6.532,1.932,13.121,3.611,19.747,5.049
			c0.689,0.281,1.379,0.562,2.064,0.844c1.648,0.67,2.595,1.738,2.84,3.195c-0.383,1.125-0.547,2.35-0.502,3.578
			c-1.489,4.5-0.453,6.539,3.762,8.146c1.297,0.494,2.575,0.801,3.839,0.951c0.478,0.09,0.979,0.127,1.498,0.102
			c4.761,0.127,9.282-1.807,13.635-4.051c0.123-0.061,0.241-0.119,0.363-0.18c5.957-1.922,11.909-3.848,17.866-5.77
			c2.733-0.453,5.492-0.754,8.278-0.926c3.048,0.012,6.091-0.045,9.139-0.146c0.098,0.004,0.196,0.004,0.294,0.004
			c19.747,0.494,39.519-0.029,59.278-0.229c2.79-0.029,5.577-0.596,7.891-0.885c0.086,0.061,0.18,0.109,0.265,0.166
			c0.824,4.154,0.833,7.891,2.322,10.564c0.51,0.912,0.946,1.836,1.321,2.758c0.213,0.645,0.44,1.285,0.682,1.922
			c1.86,5.906,1.407,12.01,0.416,18.172c-1.718,10.645-4.447,20.857-10.991,29.289c-1.526,1.967-2.648,4.645-3.199,7.207
			c-1.146,5.311,1.135,9.342,5.067,10.264c1.673,0.936,3.591,1.213,5.382,0.426c1.542-0.678,3.064-1.408,4.573-2.164
			c10.854-3.627,20.331-10.191,28.687-19.232c5.99-6.479,11.094-13.631,15.61-21.221c4.337-6.756,8.07-14.025,11.11-21.709
			c1.117-2.5,2.211-5.021,3.28-7.561c2.007-4.781,3.994-9.588,5.679-14.523c1.273-3.73,3.525-5.684,6.716-7.104
			c5.101-2.273,10.204-4.541,15.304-6.814c10.502-4.17,20.898-4.643,31.188-9.572c16.41-7.854,32.465-0.361,47.985-10.285
			c1.909-1.219,3.807-2.48,5.688-3.773c2.876-1.812,5.736-7.74,8.568-9.633c1.387-0.307,2.771-1.102,4.035-2.542
			c0.154-0.176,0.31-0.351,0.461-0.526c0.399-0.277,0.804-0.551,1.203-0.832c1.098-0.775,2.154-1.604,3.187-2.461
			c1.036-0.432,1.995-1.121,2.778-2.089c0.49-0.604,0.976-1.204,1.465-1.808c4.439-4.483,8.299-9.714,11.689-15.394
			c1.693-2.835,2.134-5.634,1.057-8.992c-0.465-1.456-0.236-3.753,0.51-5.059C570.745,276.076,569.726,254.545,562.688,248.756z"/>
	</g>
</g>
<g>
</g>
<g>
</g>
<g>
</g>
<g>
</g>
<g>
</g>
<g>
</g>
<g>
</g>
<g>
</g>
<g>
</g>
<g>
</g>
<g>
</g>
<g>
</g>
<g>
</g>
<g>
</g>
<g>
</g>
</svg>
