<?xml version="1.0" ?><svg id="Layer_1" style="enable-background:new 0 0 24 24;" version="1.1" viewBox="0 0 24 24" xml:space="preserve" xmlns="http://www.w3.org/2000/svg" xmlns:xlink="http://www.w3.org/1999/xlink"><title/><g id="Rudolf_Deer"><g><path d="M22.919,8.25C22.83,8.096,22.667,8.001,22.489,8l0,0c-2.126,0.046-4.2,0.668-6,1.8    c-0.224,0.162-0.274,0.474-0.113,0.698c0.016,0.022,0.034,0.043,0.053,0.062c0.697,0.708,1.179,1.599,1.39,2.57    c0.056,0.225,0.258,0.382,0.49,0.38c0.088-0.001,0.174-0.025,0.25-0.07c1.79-1.229,3.294-2.828,4.41-4.69    C23.043,8.586,23.024,8.396,22.919,8.25z" style="fill:#ffffff;"/><path d="M14.489,10.46l0.43-2.09c1.07-0.43,5.07-2.17,5.07-4.87c0-2.99-1.15-3.43-1.38-3.5    c-0.273-0.069-0.55,0.096-0.62,0.369c0,0,0,0.001,0,0.001c-0.075,0.254,0.071,0.521,0.325,0.596    c0.005,0.001,0.01,0.003,0.015,0.004c0,0,0.66,0.33,0.66,2.53c-0.058,0.71-0.397,1.369-0.94,1.83    c-0.126-1.113-0.517-2.179-1.14-3.11c-0.155-0.229-0.466-0.29-0.695-0.135s-0.29,0.466-0.135,0.695c0.45,0.67,1.4,2.5,0.77,3.44    c-0.602-0.029-1.171-0.286-1.59-0.72c-1.27-1.32-1.27-3.96-1.27-3.99c0.006-0.276-0.214-0.504-0.49-0.51c0,0,0,0,0,0l0,0    c-0.272,0-0.495,0.218-0.5,0.49c0,0.13,0,3.09,1.55,4.71c0.308,0.339,0.683,0.611,1.1,0.8c-0.432,0.216-0.876,0.407-1.33,0.57    c-0.158,0.049-0.281,0.172-0.33,0.33l-0.46,2.26c-1.019-0.21-2.071-0.21-3.09,0L9.989,7.9c-0.037-0.173-0.162-0.314-0.33-0.37    C9.206,7.38,8.762,7.203,8.329,7c0.421-0.188,0.799-0.46,1.11-0.8c1.55-1.62,1.55-4.58,1.55-4.71    c-0.016-0.272-0.238-0.485-0.51-0.49c-0.276,0.005-0.495,0.234-0.49,0.51c0,0,0,0,0,0c0,0,0,2.66-1.26,4    c-0.422,0.436-0.994,0.694-1.6,0.72c-0.63-0.94,0.32-2.78,0.77-3.44c0.155-0.229,0.094-0.54-0.135-0.695    C7.535,1.94,7.224,2.001,7.069,2.23l0,0c-0.622,0.928-1.013,1.991-1.14,3.1C5.386,4.869,5.048,4.21,4.989,3.5    c0-2.17,0.64-2.5,0.62-2.5c0.276-0.066,0.446-0.344,0.38-0.62S5.645-0.066,5.369,0c-0.23,0.07-1.38,0.51-1.38,3.5    c0,2.7,4,4.44,5.07,4.87l0.43,2.09c-1.4,0.6-2.5,1.91-2.5,4.54c-0.021,1.77,0.319,3.526,1,5.16c0.87,2.49,2.12,3.12,2.67,3.28    c0.332,0.383,0.824,0.59,1.33,0.56c0.498,0.027,0.98-0.176,1.31-0.55c0.55-0.16,1.8-0.79,2.67-3.28    c0.689-1.636,1.037-3.395,1.02-5.17C16.989,12.37,15.889,11.06,14.489,10.46z M9.989,16c-0.552,0-1-0.448-1-1s0.448-1,1-1    s1,0.448,1,1S10.541,16,9.989,16z M11.989,22c-0.552,0-1-0.448-1-1c-0.022-0.32,0.219-0.597,0.539-0.619    c0.01-0.001,0.021-0.001,0.031-0.001c0.118,0.002,0.234,0.03,0.34,0.08h0.1h0.09c0.106-0.05,0.222-0.078,0.34-0.08    c0.32,0.01,0.571,0.278,0.561,0.598c0,0.007-0.001,0.014-0.001,0.022C12.989,21.552,12.541,22,11.989,22z M13.989,16    c-0.552,0-1-0.448-1-1s0.448-1,1-1s1,0.448,1,1S14.541,16,13.989,16z" style="fill:#ffffff;"/><path d="M7.749,10.16c-0.011-0.148-0.088-0.284-0.21-0.37C5.721,8.658,3.63,8.04,1.489,8    C1.213,7.998,0.988,8.221,0.986,8.497C0.986,8.59,1.011,8.681,1.059,8.76c1.128,1.831,2.635,3.4,4.42,4.6    c0.24,0.136,0.545,0.051,0.681-0.19c0.03-0.053,0.05-0.11,0.059-0.17c0.218-0.946,0.696-1.812,1.38-2.5    C7.691,10.41,7.745,10.288,7.749,10.16z" style="fill:#ffffff;"/></g></g></svg>