<?xml version="1.0" ?><svg id="Layer_1" style="enable-background:new 0 0 24 24;" version="1.1" viewBox="0 0 24 24" xml:space="preserve" xmlns="http://www.w3.org/2000/svg" xmlns:xlink="http://www.w3.org/1999/xlink"><title/><g id="Santa_Slide"><path d="M21.49,14c-1.511,0.153-2.622,1.486-2.5,3c0,0.276,0.224,0.5,0.5,0.5s0.5-0.224,0.5-0.5   c0-1.1,0.67-2,1.5-2s1.5,0.9,1.5,2s-0.67,2-1.5,2H16.8l-1.68-3.4c1.491-0.261,2.797-1.155,3.58-2.45c0.64-1.37,0.23-3-1.22-4.85   c0.215-0.372,0.386-0.768,0.51-1.18c0.066-0.276-0.104-0.554-0.38-0.62c-0.276-0.066-0.554,0.104-0.62,0.38   C16.877,7.273,16.712,7.65,16.5,8c-0.033,0.039-0.06,0.083-0.08,0.13c-0.729,1.189-2.035,1.901-3.43,1.87c-1.51,0-3.2-1.24-5-2.56   C5.8,5.83,3.31,4,0.49,4C0.214,4.006-0.005,4.235,0.001,4.511C0.005,4.677,0.09,4.83,0.23,4.92c0,0,4.26,2.68,4.26,5.58   c0.045,0.548-0.037,1.099-0.24,1.61c-0.192,0.437-0.281,0.913-0.26,1.39c0,1.1,1.23,1.73,2.92,2.09L5.18,19H1.49   c-0.276,0-0.5,0.224-0.5,0.5S1.214,20,1.49,20h20c1.511-0.153,2.622-1.486,2.5-3C24.112,15.486,23.001,14.153,21.49,14z    M7.99,15.77c1.327,0.164,2.663,0.241,4,0.23c0.714-0.001,1.426-0.061,2.13-0.18L15.69,19H6.3L7.99,15.77z" style="fill:#303C42;"/></g></svg>