<?xml version="1.0" ?><svg id="Layer_1" style="enable-background:new 0 0 24 24;" version="1.1" viewBox="0 0 24 24" xml:space="preserve" xmlns="http://www.w3.org/2000/svg" xmlns:xlink="http://www.w3.org/1999/xlink"><title/><g id="Snowflake"><path d="M23.752,17.58l-2.21-1.27l2.08-1.2c0.236-0.139,0.317-0.442,0.18-0.68l-0.5-0.86   c-0.139-0.236-0.442-0.317-0.68-0.18l-3.07,1.78l-2.37-1.36l3-1.34c0.254-0.108,0.372-0.402,0.264-0.656   c-0.051-0.119-0.145-0.213-0.264-0.264l-3.07-1.36l2.43-1.39l3.09,1.8c0.238,0.137,0.541,0.056,0.68-0.18l0.5-0.86   c0.137-0.238,0.056-0.541-0.18-0.68l-2.1-1.22l2.21-1.27c0.236-0.139,0.317-0.442,0.18-0.68l-0.5-0.87   c-0.139-0.236-0.442-0.317-0.68-0.18l-2.21,1.26V3.5c0-0.276-0.223-0.5-0.499-0.501c-0.01,0-0.021,0-0.031,0.001h-1   c-0.276,0-0.5,0.224-0.5,0.5v3.57l-2.4,1.38l0.36-3.4c0.029-0.275-0.171-0.521-0.445-0.549C15.89,4.487,15.764,4.523,15.662,4.6   l-2.7,2v-2l3.14-1.8c0.24-0.136,0.325-0.44,0.19-0.68l-0.5-0.87c-0.136-0.24-0.44-0.325-0.68-0.19l-2.11,1.22V0.5   c0-0.276-0.224-0.5-0.5-0.5h-1c-0.276,0-0.5,0.224-0.5,0.5v1.77l-2.09-1.2c-0.24-0.135-0.544-0.05-0.68,0.19l-0.5,0.87   c-0.135,0.24-0.05,0.544,0.19,0.68l3.08,1.77v2l-2.7-2c-0.22-0.167-0.533-0.125-0.701,0.095C7.525,4.777,7.489,4.903,7.502,5.03   l0.36,3.4l-2.2-1.25V3.51c0-0.276-0.224-0.5-0.5-0.5h-1c-0.276,0-0.5,0.224-0.5,0.5V6l-2.41-1.35   c-0.238-0.137-0.541-0.056-0.68,0.18l-0.5,0.87c-0.137,0.238-0.056,0.541,0.18,0.68l2.32,1.34l-2,1.16   c-0.236,0.139-0.317,0.442-0.18,0.68l0.5,0.86c0.139,0.236,0.442,0.317,0.68,0.18l3-1.73l2.3,1.32l-3.07,1.35   c-0.254,0.108-0.372,0.402-0.264,0.656c0.051,0.119,0.145,0.213,0.264,0.264l3,1.34l-2.25,1.31l-3-1.73   c-0.238-0.137-0.541-0.056-0.68,0.18l-0.5,0.86c-0.137,0.238-0.056,0.541,0.18,0.68l2,1.15l-2.3,1.33   c-0.236,0.139-0.317,0.442-0.18,0.68l0.5,0.87c0.139,0.236,0.442,0.317,0.68,0.18l2.42-1.39v2.56c0,0.276,0.224,0.5,0.5,0.5h1   c0.276,0,0.5-0.224,0.5-0.5v-3.7l2.2-1.27l-0.37,3.44c-0.029,0.275,0.171,0.521,0.445,0.549c0.127,0.013,0.253-0.022,0.355-0.099   l2.7-2v2.06l-3.09,1.74c-0.24,0.136-0.325,0.44-0.19,0.68l0.5,0.87c0.136,0.24,0.44,0.325,0.68,0.19l2.1-1.2v1.76   c0,0.276,0.224,0.5,0.5,0.5h1c0.276,0,0.5-0.224,0.5-0.5v-1.78l2.11,1.22c0.24,0.135,0.544,0.05,0.68-0.19l0.5-0.87   c0.135-0.24,0.05-0.544-0.19-0.68l-3.1-1.79v-2l2.7,2c0.087,0.065,0.192,0.1,0.3,0.1l0,0c0.276,0,0.5-0.224,0.5-0.5   c0.012-0.063,0.012-0.127,0-0.19l-0.36-3.34l2.4,1.38v3.58c0,0.276,0.224,0.5,0.5,0.5h1c0.276,0,0.5-0.224,0.5-0.5V18l2.22,1.28   c0.238,0.137,0.541,0.056,0.68-0.18l0.5-0.87C24.058,17.997,23.975,17.714,23.752,17.58z" style="fill:#303C42;"/></g></svg>